<svg xmlns="http://www.w3.org/2000/svg" width="480" height="440"><path fill="#C8C8C8" d="M52.8 287.5h-1.1v-1.1c0-24.3 0-49.4-.3-73.8h2.2c.3 24 .3 48.7.3 72.7h58v2.2h-59.1z"/><path fill="#C8C8C8" d="M426.1 179.6v1.9h19.9v251.8h-392.5v-129.8h61.4v-1.9h-63.3v133.5h396.3v-255.5h-21.8z"/><polygon fill="#BABCBE" points="86.2,323.1 76,323.1 76,313 72.3,313 72.3,323.1 62.1,323.1 62.1,326.9 72.3,326.9 72.3,337 76,337 76,326.9 86.2,326.9"/><g fill="#C8C8C8"><rect x="74.6" y="242.6" width="5.2" height="1.8"/><rect x="82.7" y="242.6" width="5.2" height="1.8"/><rect x="66.4" y="242.6" width="5.2" height="1.8"/><path d="M58.7 244.4h4.8v-1.8h-4.8c-.4-2.8-2.9-5-5.8-5-3.3 0-5.9 2.7-5.9 5.9 0 3 2.2 5.4 5 5.8v.1h1.7v-.1c2.5-.3 4.6-2.3 5-4.9z"/><polygon points="93.6,242.6 90.7,242.6 90.7,244.4 93.6,244.4 90,247.8 91.5,249.4 97.8,243.5 91.5,237.7 90,239.2"/></g><g fill="#C8C8C8"><rect x="94.4" y="407.1" width="1.8" height="5.2"/><rect x="94.4" y="398.9" width="1.8" height="5.2"/><rect x="94.4" y="415.3" width="1.8" height="5.2"/><path d="M96.2 428.3v-4.8h-1.8v4.8c-2.8.4-5 2.9-5 5.8 0 3.3 2.7 5.9 5.9 5.9 3 0 5.4-2.2 5.8-5h.1v-1.7h-.1c-.3-2.6-2.4-4.7-4.9-5z"/><polygon points="94.4,393.3 94.4,396.2 96.2,396.2 96.2,393.3 99.6,396.9 101.2,395.4 95.3,389.1 89.4,395.4 91,396.9"/></g><g fill="#231F20"><rect x="282.6" y="182.3" width="51.3" height="36.4"/><rect x="261.6" y="212.6" width="93.3" height="7.7"/></g><path fill="#B9BBBD" d="M418.1 189.4c0 1.7-1.4 3-3.1 3h-213.5c-1.7 0-3.1-1.4-3.1-3v-153.7c0-1.7 1.4-3 3.1-3h213.5c1.7 0 3.1 1.4 3.1 3v153.7z"/><path fill="#231F20" d="M418.1 166.9v-131.2c0-1.7-1.4-3-3.1-3h-213.5c-1.7 0-3.1 1.4-3.1 3v131.2h219.7z"/><rect x="208.1" y="41.7" fill="#DD4628" width="200.3" height="116.1"/><path fill-rule="evenodd" clip-rule="evenodd" fill="#EA6427" d="M382.3 133.7c-.5.8-1.1 1.4-1.7 2.1-.3.1-.6.3-.8.5-.4.8-.9 1.4-1.7 1.8-.3.2-.5.6-.8 1-.1.2-1.1 1.1-1.4 1.2-.3 0-.3 0-.4-.2 0-.1-.1-.3 0-.4.2-.6 1.3-1.4 1.8-1.9.8-.7 1.2-1.4 1.7-1.9l.9-.2c.2-.3.2-.3.2-.5 0-.1-.2-.2-.1-.4.1-.3.4-.4.5-.8.1-.3-.1-.4-.1-.5.1-.4 0-.6-.1-.9 0-.1-.3-.1 0-.4.2-.2.2-.1.3 0 .2 0 .3.1.6.2.1 0 .2 0 .2.1.1.3-.2.8-.1 1 .3.3.9 0 1 .2zm-16.3-46.9c-.1.1-.1.3 0 .4l.5.1c.2 0 .7.3.8.1.2-.3.5-.4.8-.6.2-.1.3-.2.5-.2.1 0 .3 0 .4-.1.2-.1.3-.4.3-.6l.3-.3.5-.3c.5-.4 1-.8 1.4-1.3.4-.5.8-1.1 1.1-1.6l.3-.9c.1-.1-.1-.3-.2-.2l-.5.3c-.5.4-.8 1-1.1 1.5l-.4.9c0 .1-.2.1-.3.2-.2.1-.3.2-.4.4 0 .1-.1.2-.2.3-.1.1-.3.1-.4.1-.2.1-.4.2-.6.4-.4.3-.7.7-1.2.7-.2 0-.4-.2-.6-.4-.1-.1-.4-.5-.6-.3-.1.1-.1.3-.1.4v.4c0 .3-.1.5-.3.6zm2.8 29.2c.1 0 .3-.3.3-.4.1.1.1.2.1.2.1.1.2 0 .2 0 .1.1.2.1.3.1l.3.1c.1.4.3.6.6.8.3.2.7.3 1 .4.1 0 .4.1.4-.1s-.2-.4-.4-.5c-.3-.2-.7-.4-1-.8-.1-.1-.3-.5-.1-.5.2-.1.2-.2.2-.3v-.1l.2-.1c0-.1.1-.1 0-.2 0-.1-.1-.1-.2-.1l-.3.1c-.1 0-.2.2-.3.1-.1-.1-.2-.4-.4-.3 0-.3-.2-.5-.4-.6-.2-.1-.3-.1-.4-.2-.1-.1-.1-.3-.3-.3h-.3c-.2 0-.3-.1-.5-.2-.1-.1-.2-.2-.4-.2l-.6-.1-1-.4c-.2 0-.3.2-.3.3l-.1.1c-.1.1-.2.1-.2.2l-.2.3c-.1.1-.2.1-.3.1-.3 0-.4-.6-.5-.8 0-.2 0-.4-.1-.5 0-.1-.3-.2-.4-.2-.3-.1-.7-.1-1 .1-.1.1-.2.2-.2.3.1.1.1.1.3.2.1 0 .3.2.3.3l.2.2c.1.1.1.1 0 .1-.1.1.1.3.2.4.1.1.1.3.2.3s.2 0 .3-.1c.1-.1.3 0 .4.1l.4.3.3.1c.4 0 .7.2 1 .5.4.3.2.8.1 1.1-.1.2-.1.5.2.5l.7-.1.3.4c.2.1.4.1.6.1.2 0 .5 0 .7-.2.1-.3-.2-.5.1-.5.1-.1-.1 0 0 0zm-2.2-32.3c-.3 0-.2.5-.2.6 0 .1 0 .2.1.3.1.1.2 0 .3 0 .2-.1.2-.2.1-.4-.1-.1-.1-.6-.3-.5zm-11.6 32.7c.2 0 .1-.3.1-.4-.1-.2-.3-.2-.4-.1-.2 0-.2-.1-.4-.2-.1-.1-.4-.3-.6-.4-.1-.1-.3-.2-.5 0-.1.2-.2.2-.4.2-.5-.1-1-.5-1.5-.5-.2 0-.2.1-.4.2-.2.2 0 .3.2.4l.3.3c.1 0 .2 0 .4.1 0 0 .2.1.3.1.5-.1 1 .2 1.5.3.2.1.5.1.7 0l.1.1c.3-.1.5-.1.6-.1zm13.9-16.3c-.2-.1-.4-.4-.6-.1-.1.1.1.6.2.7.2.6.3 1.3.5 2 0 .1.1.1.2.1.2 0 .2-.2.2-.3.1-.3.2-.5.1-.8 0-.3-.2-.5-.3-.7-.1-.1-.1-.3-.1-.4-.1-.3-.1-.4-.2-.5zm4 13.9c.1-.1 0-.3-.2-.3-.3-.1-.3.2-.4.4-.1.1-.3.2-.5.2l-.3.1c-.1 0-.1-.1-.3-.1-.1 0-.2.2-.1.3.1.2.5.2.7.1.5.1 1.2-.2 1.1-.7.1 0 .1.2 0 0zm-5.8-31.2c.4.1.1-.7 0-.8l-.3-1.2c0-.2 0-.9-.3-.9-.1 0-.4 0-.4.2v.6c0 .3 0 .7.2.9l.1.2v.8999999999999999c0 .2-.1.9.2.9.3 0 .1-.9.5-.8zm-103.4 26.1c-.2 0-.4-.2-.5-.3l-.5-.3c-.2-.1-.3 0-.4-.3l-.3-.4c-.3-.2-.7-.2-.7-.6 0-.3-.2-.6-.4-.8l-.3-.4-.1-.2h-.2c-.2 0-.2 0-.4-.1s-.3-.2-.5-.2l-.5-.2-.4-.4-.9-.6-.3-.2-.2.2c-.1.1-.3.1-.4.1-.2 0-.3 0-.5-.1-.2 0-.3 0-.5-.1s-.3-.3-.5-.3l-.5-.3-.9-.5-.9-.6c-.2-.2-.5-.5-.4-.7.2-.6 0-1.2-.5-1.7l-.7-.8-.4-.4c-.1-.1-.2-.2-.2-.3 0-.2-.1-.3-.2-.4l-.3-.3-.6-.7c-.2-.3-.4-.6-.5-.9 0-.2-.1-.3-.2-.5 0-.1 0-.1-.2-.1h-.3c-.1 0 0 .2 0 .3 0 .2-.1.5.1.7l.2.1c.1.1.1.1.1.2.1.2.2.3.2.5l.5.9c.2.2.2.6.3.9l.2.4.3.3c.2.2-.1.7-.4.4-.2-.2-.3-.5-.6-.7l-.2-.8c-.1-.2-.3-.3-.4-.4-.5-.3-1.1-.4-1.2-1-.1-.4.7 0 .4-.5-.1-.1-.2-.2-.3-.2-.1-.1-.2-.4-.2-.5-.2-.5-.3-1.1-.7-1.6-.1-.2-.3-.4-.6-.5l-.4-.2c-.1 0-.3 0-.4-.2 0-.1 0-.3-.1-.4-.1-.1-.2 0-.2-.3-.1-.3-.3-.6-.4-1 0-.1 0-.2-.1-.3l-.2-.1c-.1-.1-.2-.2-.2-.4-.1-.3-.2-.6-.3-1-.1-.1 0-.4 0-.5v-.5c-.1-.3-.1-.7 0-1 .1-.7.4-1.5.2-2.2-.1-.3-.2-.6-.2-.9 0-.1 0-.1-.1-.2s-.2-.1-.2-.2l-.4-.3c-.2-.2-.3-.3-.5-.4-.1-.1-.3-.2-.3-.3 0-.1-.1-.1 0-.2 0-.1.1-.1.1-.1v-.3c0-.2-.1-.5-.2-.7-.1-.1-.2-.2-.3-.2-.2-.1-.2-.1-.2-.3 0-.3-.3-.5-.5-.8-.1-.1-.1-.3 0-.4l.1-.2-.2-.1c-.1 0-.1-.3-.1-.2-.1.1-.3 0-.3-.1 0-.2-.1-.1-.1-.2-.1-.1 0-.3 0-.4 0-.1-.2-.3-.3-.2l-.2.3c-.2 0-.2-.1-.2-.2s-.2-.2 0-.3l.1-.1v-.2c0-.1-.1-.2-.2-.1l-.2.3s-.1.1-.2.1l-.1.1c-.2.1-.3-.2-.3-.3-.1-.1-.2-.3-.2-.4 0-.2.4-.5.1-.7-.2-.1-.1.1-.1.2 0 .2-.2.2-.3.1-.3-.1-.5-.3-.6-.6l-.2-.1c-.1 0-.1 0-.2-.1-.1 0-.2-.1-.2-.2s.1-.2-.1-.2h-.5c-.6 0-1.3-.1-1.9-.3-.3-.1-.5-.3-.7-.4-.1-.1-.2-.1-.4-.1-.1 0-.3.1-.4-.1-.2.2.2.9-.3.9-.2 0-.4.1-.6.2-.1.1-.3.2-.4.2-.1 0-.2 0-.2-.1l-.1-.2c-.1-.1.1-.3.1-.4.1-.2 0-.3.2-.5.2-.1.3-.1.5-.1 0-.1 0-.2-.1-.3-.2-.1-.3 0-.5.1-.2.2-.4.4-.6.7-.2.3-.4.6-.7.7 0 .2.4.4.1.6-.1.1-.2.2-.2.3l-.4.2c-.2.1-.5.3-.6.5-.1.3-.6.4-.9.6-.2.2-.4.5-.7.5-.1 0-.3 0-.3-.2l.4-.4.6-.5c.2-.2.4-.5.4-.7 0-.1.1-.4 0-.4l-.4.1c-.2 0-.1-.2-.3 0-.1.1-.2.1-.3 0-.1-.1-.3-.2-.4-.2-.1 0-.1.1-.1.1-.1 0-.2 0-.2.1-.4.2-.2-.5-.2-.6 0-.1 0-.4-.2-.3-.1 0-.2.1-.3.2-.2.3-.5-.1-.6-.2-.1-.3-.4-.4-.1-.6-.2-.1-.7-.5-.5-.7 0-.2.2-.5.4-.6.2-.1.2 0 .2-.2 0-.1 0-.2.2-.2s.4 0 .6-.1c.1-.1.2-.2.4-.3.1-.1.3 0 .4 0 .1 0 .2-.1.3-.3.1-.2 0-.3 0-.4l.1-.2c0-.1 0-.2-.2-.2-.1 0-.3.1-.4.2-.1.1-.2.3-.3.2-.4-.1-.8-.1-1.1 0-.1 0-.3 0-.4-.1l-.1-.4v-.2h-.2c-.1 0-.2 0-.2-.1 0-.2.4-.4.6-.5.2-.1.4-.1.5-.2.1 0 .3-.1.5-.1.1 0 .2.1.2.2s.1.1.2.1h.4c.2 0 .3.1.3-.1.1-.3-.4-.4-.4-.7-.1 0-.4.1-.4-.1 0-.1-.1-.3-.2-.4-.1-.2-.3-.1-.4-.1-.1-.1-.2-.1-.4-.2-.1-.1-.4-.1-.3-.3l.1-.3c0-.2.3-.1.4-.1.1 0 .3 0 .5-.1.3-.1.4-.3.6-.5.1-.2.3-.6.6-.7.4 0 .6-.2.9-.4.2-.1.2-.1.4-.1s.4 0 .5-.1c.1 0 .3-.1.4-.2.1-.1.2-.2.3-.1.1 0 .3.1.2.3-.1.1.1.1.2.1.1-.1.1-.2.3-.2.1 0 .1.2.3.1.2-.1.6-.1.8 0 .1.1.2.2.4.3.1 0 .3 0 .5.1.3 0 .6 0 1 .1l.4.2h.5c.4.1.7.3 1 .1.1-.1.4.1.6.1.2.1.3.1.4.2.4-.1.7 0 1 .1.3.1.7.3 1 .5.1 0 .2.1.2.1l.2-.1c.1 0 .1-.2.1-.2l.4-.2c.1-.1.1-.2.2-.2.1-.1.2 0 .3.1.1.1.3.1.4 0 .3-.1.6-.3 1-.5.1 0 .3-.1.5-.1l.2.3.4-.1c.1-.1.1-.4.3-.5.3-.2.6.6.8.7.1.1.2.2.4.1l.1-.4c.2-.2.5.3.5.4.3-.2.7-.3 1.1-.3.1 0 .4 0 .4.2 0 .1.1.2.2.2.2 0 .3-.1.5 0 .2 0 .3.1.4.2.2 0 .4.1.6.2.1 0 .1.1.2 0 0-.1.1-.1.2-.1 0-.1-.1-.2-.2-.3-.1-.1-.3 0-.3-.2l-.1-.4c.1-.1.2-.2.3-.2.1-.1.4 0 .3-.2-.1-.1-.3-.1-.4-.1-.3 0-.6 0-.6-.3s0-.5-.2-.7c-.2-.1.1-.5.1-.6.1-.1.1-.3 0-.4h-.2c-.1.1-.1.2-.1.3-.1.1-.2.1-.3.1-.3.1-.3.4-.4.7l-.4.2c-.1 0-.2.1-.4.2s-.5.2-.7-.1l-.2-.4c-.1 0-.2-.1-.4-.1-.1 0-.4 0-.3-.2 0-.2.1-.3.2-.5l.4-.8c.1-.2.1-.3.1-.5l-.1-.4c0-.2.4-.4.6-.2.2-.1.4-.1.6-.1.2 0 .6-.1.7.1.2.3.8.3 1.2.2.1 0 .2-.1.3 0 .1.1.2.2.3.2.2.1.4.2.5.4 0 .1.1.2.1.2h.2c.2 0 .3.1.3.2s-.1.2.1.2c.1 0 .1 0 .2-.1l.3-.1c.1.1.2.1.4.1s.2.2.3.3c.2.3.4-.3.4-.4.2-.1.6.1.7.2.1.1.1.2.2.1s.1-.2.1-.3c0-.3.1-.4.3-.4h.2l.2-.4c.1-.1.3 0 .4.1.1.1.4.1.4.2.1.2-.1.6-.2.7-.1.1.2.8.3 1l.2.5.1.2c0 .1.1.1.2.1.3.1.6.3.9.5.2.1.3.2.2.4-.1.1-.1.1-.3.1h-.3v.2s.1.1.1.2c.3.3-.6.4-.8.4-.2 0-.7 0-.8-.2-.3.6.5.7.9.8l.3.2c.1.1.3.1.4.1l.8-.1c.1 0 .8-.2.8-.2 0-.2.3-.1.2-.4-.1-.2-.4-.1-.5-.2-.2-.1.1-.3.2-.4l.3-.4c.1-.1.3 0 .5.1.3.1.5.2.7.5.1.2.2.3.1.5 0 .2-.1.3.1.3s.3-.1.4-.2c.1-.1-.1-.2-.2-.2v-.7l-.4-.2c-.1 0-.3 0-.3-.2v-1.1c0-.2 0-.3.2-.4l.3-.3c0-.2.1-.4 0-.6 0-.2-.1-.2-.2-.4-.1-.1 0-.4 0-.5l.1-.5c0-.1 0-.3.2-.3l.5-.1c.4 0 .7 0 1 .1.1 0 .3 0 .4.1.1.1 0 .3 0 .4-.1.2-.2.5-.4.7-.1.1-.2.1-.4.2-.1 0-.3 0-.4.1l-.5.8c.2.1.5.2.6.4.1.1.1.2.1.3 0 .1 0 .1.1.2.2.1.3.4.3.6 0 .1-.2.4-.1.5l.5.1.2.5c.2.1.3-.2.4-.2.2-.1.4.1.5.2.1.1.4.4.2.6-.2.2-.1.4 0 .6.1.1.3.4.4.2.1-.1.1-.1 0-.2 0-.1-.1-.2 0-.2.1-.1.2-.1.3-.1.1 0 .1-.2.2-.3l.4-.5c.2-.1-.2-.3-.2-.4 0-.2.2-.3.4-.4 0-.1-.4-.1-.5-.2-.4-.1-.7-.1-1.1-.3-.1 0-.3-.1-.4-.2l-.1-.4c-.1-.2-.4-.3-.4-.5 0-.1 0-.3.1-.4.2-.7.6-1.8 1.6-1.9.2 0 .4 0 .6.1.2.1 0 .3-.1.4-.2.3-.4.5-.4.8-.1.2 0 .4.1.6.1 0 .2-.1.2-.2 0-.2-.1-.7.1-.8.2 0 .2-.2.3-.3 0-.1.3-.2.4-.2.3-.1.7-.3 1-.3.2 0 .2.3.3.4 0 .1 0 .1.1.1s.1.1.1.1c0 .3-.2.7 0 1 .1-.4.5-.4.9-.3 0-.3.4-.4.6-.4-.1-.1-.5 0-.7.1-.3.1-.4.2-.6-.1l-.2-.3c-.1-.1-.2-.1-.2-.2 0-.2.1-.4.3-.3.4 0 .9 0 1.3.2.3.1.9.7.2.7l.3.1c.1 0 .2.1.2.1.2.1.3.2.4.4.1.1.1.4.2.4.2 0 .2.1.2.3.3-.2.8-.3 1.1 0 0 0 .1.1 0 .2 0 0-.1.2 0 .2.2 0 .2.1.2.2.2-.1.7-.1.9.1.2.1-.1.3-.1.5 0 .1 0 .2.1.2 0 0 .1 0 .1-.1.1-.1.1-.1.2-.1.3 0 .2.4-.1.4-.3 0-.2.4-.2.6 0 .1 0 .2.1.3.1.2.1.1.3.1l.6.3c.1.1.5 0 .5.2.1 0 .3-.1.4 0l.2.3c0 .1-.1.2.1.2.1 0 .1-.1.2 0 .1 0 .2.2.2.3.2 0 .6 0 .6.2.1.2-.1.4-.3.5-.2.1-.4.3-.5.5-.1.2-.2.4-.5.3-.2-.1-.5-.3-.6-.4 0-.1-.1-.2-.2-.3-.1-.1-.1-.2-.2-.2l-.6-.1c-.3 0-.2.4-.2.5.1.1.2.2.2.4.1.1.1.3.3.3.2 0 .4.1.6.2.3.2.5.6.3 1l-.1.2c0 .1 0 .1.1.1v.2c-.1.2-.4 0-.6 0l-.4-.1c-.1 0-.1-.1-.1-.2-.1-.1-.4-.2-.6-.3 0 .4.6.6.8.8.1.1.3.3.2.4-.1.1-.2.1-.3 0-.1-.1-.2-.1-.3-.1l-.3.1c-.2 0-.3-.2-.4-.3-.2-.1-.4-.2-.5-.2-.1 0-.2.1-.3 0-.1-.1-.3-.2-.3-.4 0-.1.2-.2 0-.3-.3-.1-.5-.3-.6-.5-.1-.2-.2-.4-.4-.3l-.3.2c-.2 0-.3-.1-.4 0-.1.1-.3.2-.4.2-.2 0-.8-.2-.6-.5.1-.2.4-.5.7-.5.3.1.7 0 1.1-.1.1 0 .4 0 .3-.2-.1-.1-.2-.1-.3-.3-.1-.2.4-.5.5-.7.2-.2.3-.5.3-.7 0-.2-.1-.4-.2-.5l-.2-.1c-.1 0-.1-.1-.1-.2-.1-.1-.2-.2-.3-.2-.1 0-.1-.1-.1-.2h-.2l-.2-.2c0-.1-.1-.1-.2-.2l-.3-.3c-.1-.1-.3-.1-.3-.2s-.1-.2-.2-.2-.2-.1-.2-.1c-.1 0-.1.1-.1.2s-.1.3-.3.3c-.2 0-.2-.1-.3-.1-.1 0-.4.1-.4-.1 0 .3-.9.1-1.1.1-.1 0-.4.1-.2.2h.4c.1.1.1.2.3.3.1 0 .4 0 .4.2 0 .1 0 .3-.2.3-.1 0-.1.1-.2.2l.2.5.3.4c0 .2-.3.5-.4.6-.1.1-.2.2-.4.2h-.4c-.1.2-.1.2-.4.2-.2 0-.3 0-.4-.2-.2.2-.3.4-.4.6-.1.1-.4.4-.3.5.1.4-.2.7-.5.9-.1.1-.1.2-.2.2-.1.1-.2 0-.3 0-.2 0-.3.1-.4.3 0 0-.1.1-.2.1v.3c.1.2 0 .3-.2.4-.2.1-.3.1-.5.1l-.3.4c-.2.2-.3.5-.6.7l-.3 1.2c0 .2-.2.5 0 .7.1.1.3.1.4.1.2 0 .2.2.3.3.1.3.2.6.2.9.2 0 .4-.1.6 0 .1 0 .2.2.4.2.2.1.5.2.8.3.1.1.3.2.3.3l.1.1c.1 0 .2.1.2.1.3.1.6.1.7.4.3-.1.7 0 1.1 0 .3 0 .4.4.4.6v.8999999999999999l.1.2v.2l.1.2.3.4c.1.1.2.3.4.4.2 0 .1-.2.2-.3h.2c.1 0 .1-.1.1-.1.1-.1.1-.2.3-.2-.2-.2-.2-.6-.3-.9 0-.2 0-.3-.1-.5 0-.1-.1-.3-.1-.3.1-.1.2-.2.3-.2l.3-.3c.2-.2.3-.4.4-.7.2-.6.1-1.2-.3-1.7l-.4-.3c0-.1.1-.3.2-.3l.4-.2c.1-.1.1-.3.1-.5-.1-.2-.3-.5-.2-.7 0-.1.1-.2.1-.2 0-.1 0-.1-.1-.2s-.2-.2-.2-.4c.1-.1.2-.3.4-.4.1-.1.4 0 .5.1.3.1.7.2 1 .1.2-.1.3-.1.6.1l.3.3c.1.1.3.1.2.3 0 .1-.1.1 0 .2l.2.1c.3.1.8.1.7.4-.1.3 0 .6.1.9 0 .1 0 .5.2.4.2-.1.3.1.4.2.1.1.2.3.3.2.1-.1.2-.2.4-.2.2-.2.5-.4.5-.7 0-.1 0-.3.1-.3.1-.1.2-.1.3 0l.4.2.3.4.5 1c.1.1.3.4.2.5v.4c.1.2.3.4.5.6l.5.3c.1.1.1.1.2.1.2 0 .4 0 .5.2.1.1 0 .2 0 .3.1.1.1.1.1.2.1.1 0 .2.2.2.3 0 .3 0 .4.3v.9c0 .2-.6.4-.8.4-.1.1-.2.1-.4.1-.1 0-.1 0-.1.1-.1.1-.2.2-.3.2-.2.1-.6.2-.8.2l-.6.1c-.2 0-.4-.1-.5-.1-.4 0-.8.1-1.1.1-.2 0-.2 0-.3.1l-.2.2-.4.3c-.2.2-.4.4-.5.7l.9-.3.5-.2c.2-.1.3-.2.4-.1.1 0 .3.1.4.3.1.1-.1.3-.2.3-.1.1-.2.1-.4.1-.1 0-.2-.1-.2 0v.1c.2.1.5 0 .5.3 0 .1-.1.7.2.6.1 0 .1-.1.3-.1.1-.1.2-.1.4 0 .1 0 .2.1.2.2s-.1.2-.2.3h.6000000000000001c.1-.1.1-.3.2-.3.2-.2.5.3.3.4l-.6.4c-.2.1-.5.3-.8.3-.1 0-.1 0-.2.1l-.1.2c-.1.1-.2.2-.3.2-.1.1-.2.2-.4.1l-.2-.3c0-.2.1-.5.2-.6-.2-.1-.7-.1-.8.2 0 .1 0 .2-.1.3l-.3.1c-.1 0-.1-.1-.2 0l-.2.2c-.1.1-.2.1-.2.2-.2.1-.3.3-.4.5-.1.2-.1.4 0 .7.1.2-.3.2-.4.3-.1 0-.2.1-.3.2-.1.1-.1.2-.2.2-.2.1-.5.2-.8.1.1.2.1.5-.1.7-.1.1-.3.3-.5.2 0 .1-.1.4-.2.5-.2.1-.2-.2-.2-.3-.4.3 0 1 0 1.4v.3l-.1.2.1.2c0 .1-.2.1-.3.1 0 .1.1.2 0 .3-.1.1-.2.1-.4.2l-.6.4-.6.6c-.2.1-.4.2-.6.4-.6.8.1 1.9.2 2.8.1.3.1.5 0 .8 0 .1-.2.5-.4.3-.2-.1-.3-.4-.4-.6l-.3-.6c-.1-.3-.1-.5-.1-.8l-.4-.5c-.1-.1 0-.2-.2-.1-.1 0-.2.1-.2.1-.2.1-.5 0-.7-.2-.2-.1-.4-.2-.5-.1-.2.1-.2.1-.4 0h-.5l-.4-.1c-.2.1-.2.2-.3.4 0 .1 0 .3-.1.3-.1.1-.2 0-.3-.1-.1-.1-.1-.1-.2-.1h-.2c-.3 0-.6 0-.9.1-.3.1-.3.3-.4.5-.1.1-.3.2-.4.2-.1 0-.1 0-.2.1s-.1.1-.1.2c-.2.2-.2.5-.2.8v.5c0 .1 0 .3-.1.4h-.1l-.1.3c-.1.2-.1.3-.1.5 0 .5 0 1.1.3 1.5l.6 1c.1.1.2.2.3.4.1.1.4 0 .6-.1l.6-.1c.2 0 .3.1.4-.1.2-.2.2-.5.3-.8.1-.2.1-.6.4-.6.2 0 .2 0 .3-.1.1-.1.2-.1.3-.1.2 0 .7-.1.9.1.2.2-.2.7-.2.9-.2.7-.5 1.4-.6 2.1 0 .1 0 .1.1.1h.2c.1 0 .1 0 .2-.1h.1c.1 0 .1-.1.2 0h.1c.1-.1.4 0 .5.1.2.1.3.2.5.2.2.1.3.1.3.3.1.3-.1.6-.1.9-.1.4-.2.7-.1 1.1.1.2.1.4.3.6l.3.4c.1.1.1.1.1.2h.2l.2.1c.1-.1.2-.1.2-.1.1-.1.3-.2.4-.1.3.1 0 .5-.2.5-.1 0-.1 0-.1.1s0 .1.1.1c.7.1.6.2.5.2zm6.9-40.8zm-6.9 18.4c.1.3-.3.2-.5.1-.1-.1-.2-.2-.3-.2-.1-.1-.1 0-.2.1s-.5 0-.6 0c-.2 0-.4.1-.6.2-.1.1-.2.1-.2.2v.3c0 .2-.1.5-.2.7-.1.4-.2.8 0 1.2.1.1.2.1.3 0l.2-.2c.1-.1.1-.3.1-.4v-.8c0-.3.1-.3.3-.5.2-.2.3-.4.4-.5.1-.1.4 0 .5.1.3.2.2.7 0 1h.2c.1 0 .1.1.2.2s.1.2.2.1c.1 0 .2-.1.3 0 0-.2 0-.6.2-.8.2-.1.4.1.6.1.2-.3-.1-.6-.3-.8-.1-.1-.2-.1-.3-.1 0-.1-.2-.1-.3 0zm1.1 2.2c0-.1.1-.2 0-.3-.1-.1-.2.1-.2.1-.2.2-.3 0-.6.1l-.3.2c-.1.1-.1.2-.2.2s-.3-.1-.3-.1v.09999999999999998c.1.1.1.1.2.1s.2 0 .3-.1l.6-.2c.1.2.5 0 .5-.1zm-2.3-2.6c.1-.3-.1-.6-.1-.9-.4.1-.4-.2-.6-.4-.1-.1-.1-.1-.2-.1-.2 0-.2 0-.3-.1-.1 0-.2-.1-.2-.1l-.2.2c-.1.1-.2.2-.4.3l-.8.6c-.1.1-.3.3-.1.4.1.1.3.1.5.1.2-.1.6-.4.7-.2l.4.1c.1.1.1.2.3.1.4-.1.7-.2 1 0 .1-.1-.1-.1 0 0zm3.9 1.6l-.1-.1c-.2.3-.8.2-1.1.5h.9c.1 0 .2 0 .3-.1 0-.1.1-.3 0-.3zm-13.9-17.4l.1-.2c0-.1-.1-.2-.3-.2-.3-.1-.1-.2-.1-.4l-1.3.1c-.2 0-.4 0-.6.1-.2 0-.2-.2-.3-.3-.1-.2-.4-.4-.6-.1-.1.1.2.2.3.3.1.1.1.3-.1.3s-.4.1-.2.3c.1.1.3.1.4.1.3 0 .7.1 1 0l.5-.1c.2-.1.2 0 .4 0 .3.1.5.1.8.1zm32.5 45.9c-.1-.1 0-.2 0-.3.1-.2-.2-.2-.3-.2l-.4-.2h-.2l-.3-.1c-.2-.2-.4-.5-.5-.7l-.3-.4c-.1-.1-.4 0-.6 0-.2 0-.4-.1-.5-.1-.1-.1-.3-.2-.4-.2l-.4.1h-.2c0-.1-.1-.1-.2-.2-.4-.5-1.1-.6-1.7-.8l-.5-.1c-.1-.1-.3 0-.4 0-.3 0-.3-.5-.2-.7.1-.1.2-.2.2-.3 0-.1-.1-.3-.2-.5-.2-.3-.3-.6-.5-.8-.3-.5-.7-.9-1.2-1.1-.3-.1-.6-.1-.9 0-.2.1-.3.1-.5 0-.1-.1-.3-.2-.4-.4-.2-.2-.3-.4-.4-.7-.1-.2-.2-.2-.5-.3-.2-.1-.4-.1-.4-.3 0-.1 0-.2-.2-.3-.1 0-.2-.1-.4-.1-.1-.1-.2-.1-.2-.3 0-.1 0-.2-.2-.3-.1-.1-.3 0-.4 0h-.5c-.3 0-.5 0-.8-.1h-.4c-.2 0-.3-.2-.4-.3-.2-.2-.4-.2-.7-.1l-.7.2c-.2 0 .3-.5-.1-.5-.2 0-.5.3-.7.4-.2.1-.4 0-.6.2l-.3.1c-.1 0-.2.1-.3.2v.4c0 .1-.1.2-.2.3-.2.2-.4.3-.5.5-.2-.2-.4-.4-.6-.5-.1-.1-.3-.1-.4-.1-.2.1 0 .3.1.3.1.1.2.2.3.2.2.1 0 .2 0 .3l.2.3.2.4v1.4c0 .2 0 .3-.2.4-.1.1-.2.2-.3.2-.2.1-.2.2-.2.3-.1.3-.3.5-.5.6-.1.1-.2.1-.2.3l-.1.5c-.1.2-.4.8-.2 1h.3c.1.1 0 .3 0 .4l-.5.6c-.1.1-.1.2-.1.3l.1.4c0 .1 0 .3.1.4l.4.4c.4.5.6 1.2.8 1.9.1.4.2.7.4 1 .1.2.2.3.2.5.1.1.3.3.2.4-.2.2.2.5.4.7l.9.6c.3.2.6.3.8.5l.4.4.2.2c0 .1.2.2 0 .2-.1.1 0 .3 0 .5v1.9c-.1 1.5-.5 3.1-.7 4.6-.1.8-.2 1.6-.2 2.4v.3c-.1.1-.1.2-.1.2-.1.2-.2.3-.2.5-.1.2-.2.3-.2.5-.1.1-.2.3-.2.5.1.6-.1 1.2-.2 1.8-.1.3-.1.6 0 .8.1.3.1.5.5.4 0 .5 0 1.1-.1 1.5l-.2.9c0 .1-.1.2-.1.4v.4c0 .1-.1.1-.1.1-.1 0-.1-.1-.3-.1-.1 0-.3.1-.4.2-.1.2.2.2.3.3.4.2-.2.4 0 .6.1 0 .1 0 .2.1 0 0 0 .2.1.2 0 .2 0 .4-.1.6 0 .1-.2.2-.2.4l.1.4v1.2c.1.3.5.2.5.5v.5c-.1.1-.2.3-.1.5.1.1 0 .7.3.6.2-.1.2.1.3.2l.3.3c.1.1.1.2.3.2.2 0 .4.1.6.2l.6.1h.2l.2-.1.1.1.3-.1h.3c.3-.2-.3-.6-.4-.7-.2-.1-.5-.2-.6-.4-.1-.1-.1-.2-.2-.4 0-.1 0-.4-.2-.3-.1 0-.2-.1-.2-.1l.2-.2-.1-.3-.1-.6c0-.2.1-.5.2-.7.1-.1.2-.2.3-.2.2-.1.1-.2.2-.4.2-.6.9-.8 1.1-1.3.1-.1 0-.3-.1-.4-.1-.2-.2-.1-.4-.2l-.3-.2c0-.2-.1-.3 0-.5 0-.2.2-.4.4-.5.1-.1.3 0 .4-.2.1-.2.2-.4.2-.6.1-.3.2-.7.3-.9.1-.2.2 0 .3 0 .1-.1.2-.3.1-.4-.1-.1-.3-.1-.4-.1-.1-.1-.2-.2-.2-.3v-.2c0-.1 0-.2.1-.1l.6.1c.3 0 .6-.1.6-.4v-.7c.1-.1 0-.2.2-.2.7 0 1.1-.3 1.7-.4.3-.1.4-.5.5-.7.2-.2.3-.6.1-.9-.1-.1-.1-.1-.1-.2v-.4c-.1-.1-.3-.1-.3-.2-.1-.2.4-.1.5-.1.2 0 .9.2 1.1 0 .1-.1.2-.3.2-.5.1-.2.2-.3.4-.5.4-.5.9-1 1.2-1.6l.4-.9c.2-.2.4-.5.5-.7.1-.2.2-.5.2-.8v-.5c0-.2 0-.3.2-.5.3-.5.8-.8 1.4-1.1l.4-.3c.1-.1.3 0 .5 0 .3 0 .6-.2.8-.3.5-.5.7-1.1.9-1.6.1-.1.2-.3.2-.5-.1-.1 0-.2 0-.4 0-.1.2-.2.2-.4v-.6l.1-.9v-.5c0-.2-.1-.4.1-.5.3-.1.3-.5.4-.7.2-.3.4-.6.6-.8.4-.4.7-.9.8-1.4.1-.2.2-.7 0-.8zm8.7-43.1c.6-.2 1.2-.5 1.5-1 .1-.2-.2-.6-.4-.7-.1-.1-.3-.2-.4-.2l-.4-.3c-.1 0-.2 0-.2.1-.1.1-.2.1-.3.1-.4 0-.7.1-1 .1-.2 0-.2 0-.3.2 0 .1 0 .1-.1.1h-.2c-.1 0-.1-.2-.1-.2 0-.3-.6-.2-.7-.2-.1 0-.3 0-.4.2-.1.1-.1.3-.1.3l.6.1v.5l.1.3v.4c0 .2.7.2.9.3.1 0 .2.2.4.2h.5c.1 0 .3-.2.6-.3.6-.3-.1 0 0 0zm31 46.8c0-.3 0-.5-.2-.8 0-.1-.2-.2-.3-.2-.2.1-.1.4-.1.5l-.3.2c-.1.1-.2.1-.2.3 0 .3-.2.5-.4.6l-.3.2c-.1 0-.3.1-.4.2-.1.1-.2.3-.3.5l-.2.6c-.1.3-.1.7 0 1 0 .1 0 .2.1.2-.1.1-.1.2-.1.2l-.3.6c-.1.1-.2.3-.2.4 0 .2.1.4.2.5 0 .2.1.4.1.5 0 .1 0 .5.2.6.1.1.2.2.4.3.2.1.3 0 .5 0l.5-.2c.1 0 .1-.3.2-.5.4-1.3.7-2.7 1-4.1l.1-.6c0-.2 0-.1.2-.2.1-.1 0-.3 0-.4-.1-.1-.1-.2-.2-.4 0-.4.1.3 0 0zm50.5-4.9l-.3-.1c-.1-.1-.2 0-.2.1-.1.1-.1.3-.1.4-.1 0-.2 0-.3.1-.1.1.1.3.2.4.1.1.2.3.4.4.2.2.3.2.6.3.4.1.7.3 1 .5l.6.3c.1.1.4.2.5.1.2-.2-.1-.7-.2-.8-.2-.3-.4-.5-.6-.7-.4-.5-1-.8-1.6-1-.1 0 1.2.4 0 0zm-24.1-1.1v-.5c0-.1-.1-.2-.2-.2-.2-.2-.5-.4-.7-.7-.2-.2-.3-.4-.3-.6v-.30000000000000004c-.1-.1-.2-.1-.2-.1l-.1-.4-.3-.3c-.1-.1-.1-.2-.3-.2-.2 0-.3-.1-.4-.1l-.3-.3-.3-.3c-.3-.3-.6-.5-.8-.8-.1-.2-.2-.1-.4-.1l-.4-.1c-.1 0-.2 0-.3.1 0 .1.1.3.2.4.2.2.5.4.7.7.1.1.3.1.4.1.1 0 .2.3.3.5.1.3.3.6.3.9 0 .1.2.2.3.3l.3.4.4.9.8.9.6.6c.2.2.2.3.5.2.1 0 .3 0 .4-.1-.2-.3-.2-.7-.2-.9zm-11.7-6.7c0-.2-.3-.1-.5-.1-.3 0-.3.2-.3.4 0 .3-.1.9.2 1.1.3.2.6 0 .7-.3.1-.3 0-.8-.1-1.1zm-111.4-27.2c-.2-.1-.5-.1-.5.2-.2-.1-.4.1-.4.2 0 .3.5.1.4-.1.4.2.8-.1.5-.3-.1 0 .1.1 0 0zm128.9 28.6c-.4-.2-.5-.4-.8-.6-.2-.1-.3-.1-.4.1-.1.2-.2.3-.4.5 0 0-.1.1-.1.2-.1.1-.1.1-.2.1-.1.1-.3.1-.3.2l-.6.7c-.1.1-.2.2-.4.2-.2.1-.2.1-.3.3-.1.1-.1.4-.3.4-.2 0-.3-.2-.5-.1-.3.1-.3.5-.3.7v.5c.1.2.2.2.3.3.2.2.2.5.3.8 0 .1 0 .3.1.4.1.1.4.1.6.1.3 0 .7 0 1 .1l.4.2c.2.1.3.1.5 0s.3-.1.4-.3c.1-.1.2-.3.2-.4 0-.1-.1-.2 0-.4l.2-.3c.1-.1.2-.2.2-.3v-.4c.2-.3.6-.5.3-.8-.1-.1-.2-.3-.3-.5l-.1-.3c-.1-.1-.1-.1 0-.3.1-.2.3-.4.4-.5 0-.1.3-.4.1-.6zm.2 4.8c.2.1.4.5.3.8l-.1.3c.1.1 0 .2.2.2.4 0 .4-.3.4-.6l-.1-.9h.3c-.1.4.2.6.4 1 .1.2.2.2.4.1s.2-.2.2-.4c0-.1 0-.2-.1-.2l-.2-.1-.1-.5c0-.2-.3-.1-.2-.3 0-.2.1-.3.3-.3l.4-.1c.1-.1 0-.4-.1-.5-.2-.2-.3 0-.5.1s-.4.1-.6.1c-.1.1-.1.1-.3 0-.1-.1-.1-.2-.2-.2-.2 0-.2.2-.3.4-.1.2-.1.4-.2.5 0 .2-.1.6.1.6zm30.3-43.6c0 .2-.2.4-.4.5-.1.1-.2.1-.3.1-.1 0-.2 0-.2.1s0 .1-.1.1c0 .1-.1.2-.2.4-.1.1-.1.3-.2.3-.1.1-.4-.1-.6-.1l-.6-.3c-.1-.1-.2-.1-.2-.2s0-.1-.1-.1h-.2c-.2 0-.6.1-.7-.1-.1-.2-.3-.3-.3-.6l-.3.1c0 .3.4.7 0 .9l-.3.1c-.1.1-.1.1-.1.2-.1.1-.3.1-.4.1-.1 0-.2 0-.2.1-.1.2.1.1.2.2.1 0 .2.3.3.4 0 .1.1.3.2.4.1.2.2.8-.2.7-.1-.1-.3-.2-.5-.2-.2.1-.4.1-.5.2-.6.3-1.2.6-1.8 1.1-.3.2-.5.4-.8.7-.1.2-.7-.1-.8-.2-.1-.1-.1-.1-.3 0 0 0-.1.1-.2.1-.1.1-.3.2-.4.2-.2.1-.2.1-.3 0-.2-.1-.1-.1-.2 0-.3.2-.6.3-.9.4l-.1.2c0 .1.1.1 0 .2l-.3.3c-.1.2-.1.3-.1.5l.4.1-.1.8c.1.1.3.3.2.5-.1.2-.2.1-.3 0-.3-.1-.4.4-.3.6 0 .1.2.3.1.4-.1.2-.2.2-.4.3-.2.1-.4.1-.5.3-.1.1 0 .3 0 .4l-.3.2c-.2.1-.3.4-.3.6 0 .2-.1.2-.2.4-.1.1-.2.3-.3.3-.3.1-.4-.6-.4-.7-.2-.7-.4-1.4-.5-2.1-.1-.4 0-.8.1-1.2 0-.1.2-.2.3-.2l.1-.2c0-.1 0-.2.1-.2 0-.2.3-.2.4-.2.1 0 .2-.1.3-.2.2-.2.3-.4.5-.7l.3-.4c.1-.1.3-.2.3-.3.1-.3.2-.4.5-.5.2-.1.3-.1.4-.2.1-.1.1-.3.1-.4.1-.3 0-.6.2-.9-.2-.1-.2.1-.4.1l-.1.5-.5.3c-.3.2-.4.6-.8.4-.1-.1-.2-.2-.1-.4.1-.1.2-.3 0-.3-.4-.1-.8 0-1.2.1-.2.3-.5.6-.8.9-.1.1-.3.3-.4.5l-.1.3c0 .1 0 .1.1.1.1.2-.2.2-.3.3l-.6.2c-.1 0-.4.1-.3-.2 0-.1.1-.1-.1-.1v-.2c-.3.1-.5 0-.7 0-.2-.1-.3-.2-.4.1 0 .1-.1.2-.3.2-.2-.1-.4-.1-.6-.1-.1 0-.2 0-.3.1l-.2.1-.4-.2c-.4 0-.9 0-1.2.2l-.5.5c-.1.1-.4.2-.4.3 0 .3-.4.5-.7.8l-.5.5-.3.5c-.3.2-.6.3-.6.7.3-.1.4.3.7.3.2 0 .1.2.2.3 0 .1.1.1.2.1.3 0 .3-.1.4-.3.1-.3.5 0 .7.1l.3.3c.1.1.2.1.2.3l.1.7c0 .1-.1.3-.2.3 0 .1-.1.3-.2.4-.1.3 0 .6.1.9.1.2-.1.6-.2.8-.1.1-.2.3-.2.4-.1.1-.1.3-.2.3-.1.1-.2.2-.2.4-.1.2-.2.3-.2.5l-.5.8c-.4.5-.8.9-1.3 1.3-.1.1-.2.2-.3.2-.2 0-.3-.1-.5-.2-.2 0-.5.1-.6.3-.4.4-.4 1-.8 1.3-.1.1-.3.2-.4.2-.2 0-.2.1-.3.2-.1.1.1.3.2.4.1.1.2.2.2.3.4.6.7 1.2.6 1.8 0 .1-.1.4-.2.4h-.4c-.2 0-.7.3-.7 0l-.1-1.1v-.5c0-.2-.3-.1-.4-.2-.2 0-.4-.1-.3-.3.1-.1.1-.3.1-.5 0-.1.1-.2 0-.3-.1-.1-.3-.1-.5-.1-.4 0-.7.2-.9.4-.2.1-.3-.1-.3-.2.1-.2.1-.3.1-.5.1-.4-.3-.3-.5-.1-.1.1-.2.2-.4.2-.1 0-.2 0-.2.1s.1.3 0 .4l-.4.2c-.3.1-.1.4.1.6.1.1.3.2.3.4h.5l.3-.2c.2 0 .4.1.5.1.1 0 .4.1.3.2 0 .1-.1.2-.2.2-.3.1-.6.2-.7.4-.2.2-.5.4-.4.7 0 .2.2.4.5.5.2.1.1.2.1.4 0 .1.1.3.2.4l.3.3c.1.1 0 .3 0 .4 0 .1.1.3 0 .4 0 .1-.1.1 0 .2l.1.2c.1.3 0 .6 0 .8l-.3.4-.2.4c-.1.1-.1.2-.3.3-.1.2-.1.3-.1.5-.2.6-.7 1.1-1.1 1.5-.4.5-1.3.1-1.7.5-.1.1-.1.3-.2.3-.2.1-.4.1-.5.1-.1.1-.3.1-.5.2-.1 0-.1.1 0 .3 0 .1-.1.3 0 .3s.3 0 .3.2-.1.6-.4.7c-.2.1-.6.2-.7-.1 0-.3.1-.6.4-.7.1-.1.1-.1 0-.2v-.2c0-.1.1-.3-.1-.3-.3-.1-.6 0-.9.1-.5.3-.7.9-.8 1.4 0 .3.4.7.6.9l.6.6c.4.5.6 1 .6 1.6.1 0 .3.1.3.2s-.1.2-.2.2l-.1.1v.2c0 .1 0 .2-.2.3-.2.1-.3.3-.6.4-.1 0-.2 0-.3.1-.1.1-.2.2-.2.3-.1.1-.4.7-.7.5-.1-.1-.1-.4 0-.6-.1-.2-.2-.3-.5-.3-.1 0-.1-.1-.2-.2s-.2-.1-.2-.1c-.1-.1-.1-.2-.2-.4 0-.1-.1-.2-.2-.2l-.6-.3-.3-.4c-.2 0-.2.2-.2.3l-.1.8c0 .1 0 .1-.1.1v.1c0 .1 0 .2-.1.3 0 .2.1.2 0 .4 0 .1-.1.2 0 .3.2.1.3.3.4.5.1.2.1.5.3.7.1 0 .3 0 .4.1.1.2.2.3.3.4l.5.3c.1.1.1.3.1.4.1.3.1.6.1 1 .1.2.2.3.3.4.1.1.1.2.1.4s-.1.2-.3.2c-.1 0-.2-.1-.3-.2-.1-.1-.2-.2-.4-.3-.1-.1-.2-.1-.2-.2s-.1-.1-.1-.1c-.1 0-.1-.1-.1-.2l-.2-.4-.3-.9c-.1-.2 0-.7-.3-.8-.1-.1-.2-.1-.2-.1l-.1-.3c-.1-.1-.2-.3-.2-.4l-.2-.4v-.2c0-.1 0-.1-.1-.2-.6-.4-.3-1.2-.1-1.7l.1-.3c0-.1 0-.2-.1-.3-.1-.2-.1-.4-.2-.5-.1-.4-.3-.8-.4-1.1-.2.1-.4.5-.6.5h-.5c-.1 0-.2 0-.3-.1-.1-.1 0-.4 0-.6l-.1-.5c0-.2-.1-.2-.2-.4-.1-.1-.1-.3-.2-.3-.5-.4-.8-1-.9-1.6-.1-.2-.7.3-.8.4-.1.1-.2.2-.4.2s-.4-.1-.4 0c-.5.5-.8 1.1-1.5 1.4-.2.1-.2.1-.2.2l-.1.2-.3.3-.7.6c-.2.1-.7.5-.6.8 0 .1.1.2.1.4s0 .3-.1.5c0 .3-.1.6-.1 1v.5c0 .1-.1.3-.2.4-.2.3-.4.6-.7.9-.1.1-.2.2-.4.1-.1-.1-.2-.1-.2-.2-.1-.1-.1-.3-.1-.4 0-.2-.1-.3-.2-.5-.2-.3-.3-.6-.5-1-.3-.6-.6-1.2-.8-1.9l-.2-.5-.2-.3c-.1-.3-.2-.6-.2-.8-.1-.3-.1-.6-.1-1v-.4c0-.1 0-.1-.1-.1s-.1 0-.1.1c-.1.1-.2.3-.3.3-.1.1-.3 0-.5 0-.3-.1-.5-.4-.7-.7 0-.2 0-.4-.1-.5l-.3-.4c-.2-.2-.5-.4-.7-.7-.1-.1-.1-.2-.2-.2h-.3c-.2 0-.4 0-.6.1h-1.2l-2.4-.1c0 .3.1.6.4.7l.5.1c.1 0 .2.2.3.3.3.5.2 1.3-.4 1.6-.1.1-.2 0-.2.2v.3c0 .1 0 .3-.1.4l-.3.2c-.1.1-.2.2-.2.3-.1.2-.3.2-.4.2-.1.1-.2.1-.2.2-.1.3-.5.2-.8.3-.3.1-.5.3-.7.5-.1.1-.2.2-.2.3-.1.1-.2.2-.4.2-.3.1-.6.2-.8.4-.1.1-.1.2-.3.2-.2 0-.3 0-.4.1-.2.1-.2.1-.4.1-.1 0-.3 0-.4.1-.1 0-.2.1-.3.2-.1.1-.2.1-.4 0-.2 0-.4 0-.5-.2l-.2-.5c-.1-.3-.1-.6-.1-.9 0-.2 0-.3-.1-.5l-.3-.5c-.1-.3-.3-.6-.5-.9-.2-.3-.4-.6-.7-.9-.1-.1-.2-.2-.2-.4 0-.1-.1-.3 0-.5 0-.2-.1-.4-.2-.6-.1-.2-.2-.2-.3-.3-.2-.2-.4-.5-.5-.8-.3-.6-.5-1.3-1.1-1.7-.1.2-.1.4-.4.3 0 .4.2.8.4 1.2.1.2.2.4.3.7.1.1.2.2.2.3v.3l.6 1c.1.2.2.4.2.6v.3c0 .1 0 .2.1.3l.2.6c0 .2.3.1.4.3.2.1.2.4.2.6 0 .2.1.4.2.5.1.2.4.2.4.4 0 .1 0 .1.1.2l.3.2c.2.1.3.3.4.5.2.1.4.3.5.4.1.1-.1.3 0 .5 0 .2.1.3.2.4.1.1.2.2.3.4.1.1.4 0 .5 0 .8-.2 1.6-.4 2.4-.7.4-.1.3.3.3.6 0 .1-.1.2-.2.3l-.1.5c-.2.7-.5 1.3-.8 2l-1.2 1.8-.4.3s-.1.1-.2.1c-.1.1-.1.2-.2.2-.2.2-.5.5-.6.7l-.3.5c-.1.1-.1.3-.2.3-.3.2-.4.4-.6.7-.1.3-.2.6-.4.9-.1.1-.1.3-.3.4-.1.1-.3.2-.2.3 0 .2.1.3.2.4l.3.2v1l.3.9c.1.1.2.3.2.4l-.1.5.1 1.2c0 .3.1.7-.1 1-.4.5-1 .9-1.6 1.2-.1 0-.2.1-.3.2l-.1.2c-.1.1-.2.2-.3.4l-.3.3c-.1.1-.1.1-.1.2v.2c.2.6.4 1.3.3 1.9 0 .1 0 .3-.1.5s-.2.2-.3.2c-.1.1-.3.1-.4.3-.1.1-.3.2-.3.3 0 .3-.1.6-.1 1 0 .2 0 .6-.1.8-.1.1-.2.2-.3.2-.1.1-.1 0-.2.2-.1.3-.3.6-.5.9-.3.6-.8 1.1-1.3 1.6l-.4.3-.4.1c-.1 0-.2.2-.4.2h-.5c-.2 0-.4 0-.5-.1-.1.1-.3.1-.5.2-.3.1-.6.2-1 .3-.1 0-.2-.1-.3-.2-.1-.1-.3-.1-.3-.2-.2-.2-.2-.7-.2-1 0-.2.1-.3 0-.6 0-.1-.1-.3-.2-.4l-.2-.5c0-.1 0-.4-.1-.5-.8-.8-1.1-2-1.2-3 0-.4-.1-.8-.1-1.1-.2-.4-.3-.7-.4-1l-.3-.6-.2-.2c-.3-.1-.3-.7-.3-.9-.1-.7.1-1.4.3-2.1.1-.3.1-.7.3-1 .1-.1.1-.1.2-.1l.1-.5c0-.6-.4-1.2-.3-1.9 0-.1-.2-.1-.3-.2-.1-.1-.1-.3-.1-.4 0-.3.1-.6 0-.9 0-.3-.3-.6-.5-.9-.2-.2-.4-.4-.6-.7l-.3-.5v-.5c.1-.3.2-.5.2-.8.1-.5.2-1.1 0-1.6-.1-.2-.3-.5-.6-.5l-.5.1-.5.1c-.2-.1-.2-.3-.3-.5-.1-.1-.2-.2-.2-.3l-.3-.3h-.6c-.7.1-1.2.3-1.8.6l-.6.3c-.2.1-.3-.1-.4-.1-.3-.1-.7-.1-1-.1-.1 0-.2 0-.3.1-.2 0-.1.1-.2.1l-.4.2c-.2.1-.3 0-.5 0-.1 0-.4 0-.5-.1-.2-.3-.5-.5-.8-.7-.1-.1-.2-.2-.3-.4l-.1-.2c-.1 0-.2-.1-.2-.1l-1-1.4c-.1-.1-.1-.3-.2-.5l-.3-.3s-.1-.1-.1-.2 0-.1-.1-.1-.2-.1-.3-.2c-.2-.2-.2-.5-.2-.8 0-.2 0-.3-.1-.5s-.1-.2 0-.4c.1-.1.3-.3.3-.4v-1c0-.1 0-.2.1-.2 0-.1 0-.1-.1-.2 0-.3-.1-.6-.1-1-.1-.3-.2-.7-.1-1 .2-.7.6-1.3.9-2 .1-.2.2-.4.2-.6.1-.2.1-.2.3-.3l.5-.7.3-.1.3-.3.3-.3c.2-.1.3-.1.4-.3.4-.6 0-1.4.5-1.9.1-.1.3-.2.4-.4.1-.1.1-.2.3-.2.2-.1.4-.3.4-.5l.2-.5c0-.1.1-.2.1-.2.1-.1.1 0 0-.2s-.3-.7-.7-.6c-.3 0-.8.3-.8-.2 0-.3 0-.6-.2-.8-.1-.1.1-.3.1-.5l.1-.5v-1c0-.3-.3-.7 0-.9.2-.1.5-.2.8-.3.8-.1 1.6 0 2.4 0 .3 0 .3-.6.3-.8v-.7l-.1-.2-.3-.5c-.1-.2-.1-.1-.2-.2-.3-.1-.7-.2-.9-.4-.3-.2.2-.5.4-.6.3-.1.6-.1.8.1.2 0 .3-.2.3-.3l-.1-.3c-.1-.4.6 0 .7 0 .2.1.5-.3.6-.5.1-.1.2-.3.2-.4.1-.2.1-.2.3-.2l.5-.2c.1 0 .1 0 .2-.1l.1-.2c.2-.2.6-.4.6-.6 0-.1-.1-.3 0-.4.1-.1.3-.2.4-.2l.5-.2h.3c.2 0 .2-.1.2-.2.1-.4 0-.8-.1-1.1-.1-.2-.2-.8.1-1 .2-.1.7-.6.9-.4.2.2 0 .7-.1.9 0 .1-.1.7.3.6.2-.1.4-.4.7-.4 0-.5-.2-1-.4-1.5-.1-.3-.2-.5-.2-.8-.1-.1-.1-.1-.3-.1l-.3.1c-.3.1-.4.4-.6.6-.2.2-.4.2-.6.1-.3-.1-.6-.3-.8-.6-.1-.1-.1-.3-.1-.4l.3-.3v-.5l-.3-.3c-.1-.1 0-.3 0-.5v-.4c0-.2.3-.3.4-.4l.5-.3.4-.3c.1-.1.2-.1.2-.2v-.2c.1-.2.3 0 .4 0l.2-.4.6-.6.3-.4c0-.1 0-.3.2-.4.2-.1.1 0 .2-.2 0-.1.1-.3.2-.4l1.2-1.5-.6-.3c0-.1 0-.2.1-.3.1-.1.2-.1.3 0 .1-.1.2-.3.3-.1.1.1.1.2.3.2.2 0 .1-.2 0-.3 0-.2 0-.3.1-.4l.5-.1c.2-.1.2-.2.3-.3.1-.1.3-.1.4-.1.1 0 .2.2.3.3l.3-.2c.1-.1.1-.2.2-.2.1-.1.3-.1.4-.1l.3-.3c.2-.2.4-.3.7-.4l.4-.1.3.2h.3c.1 0 .2-.1.3-.2.1-.1.3 0 .4.1.2.1.4.1.5.2.2 0 .4.1.4.3 0 .1-.1.2-.2.2-.2 0-.5.1-.4.4 0 .1.1.1.2.2s.1 0 .2 0h.4c.2 0 .6-.3.7 0 0 .2-.1.2.1.3h.5c.3 0 .5 0 .8.1l1.7.9c.3.1.6.3.7.6.2.3.1.5-.1.8-.9.9-2.8.1-3.7-.3-.1.3.2.4.4.5.2.1.5.3.6.5 0 .2 0 .3-.1.4l.1.3c.1.1.1.2.1.3.1 0 .2 0 .2.1.1.1.3.2.4.2.1.1.2.2.4.2.1 0 .4 0 .4-.1v-.3l-.3-.1c-.2-.1-.5-.4-.2-.6.2-.1.4.1.6.2.2.1.3.1.6.2h.5c0-.1 0-.3-.1-.4-.1-.1-.3-.2-.2-.4 0-.1.2-.2.3-.3l.4-.3.4-.3c.2 0 .4.1.5.2.2.1.2.1.3 0 .1-.2.2-.6 0-.7-.1-.1-.1-.2-.1-.4s.1-.3 0-.5c0-.1-.1-.3 0-.4.1-.1.3 0 .4 0 .3.1.6.2.7.4.1.3-.4.2-.5.3-.2.2.2.5.4.6.1.1.3.1.5 0 .2 0 .2-.1.3-.3.1-.2.1-.3.3-.4l.5-.3c.3-.2.5-.3.9-.4.2-.1.3-.1.5-.1l.2-.2c.1 0 .2-.1.3-.2.2-.1.3.1.3.2s0 .2.1.3c.2.1.2-.1.4-.1l.9-.3c.2 0 .9-.3.9-.1 0 .1-.1.2 0 .3.1.1.3 0 .3-.1.1-.1.3-.2.3-.3 0-.1 0-.2-.1-.4 0-.1-.2-.3 0-.4.1-.1.3-.1.5 0 .7 0 1.3.2 1.9.5l.4.3.2.2c.1 0 .3-.1.4.1l.3-.2c-.2-.2-.2-.4-.4-.5-.1-.1-.4-.1-.5-.3 0-.2.2-.7 0-.9-.1-.1-.1-.1-.1-.3.1-.2.1-.2.2-.3.3-.2.4-.5.5-.8.1-.2.2-.7.5-.7h.2c.1-.1.1-.3.1-.4 0-.3.4-.1.5.1.1.1.1.3.2.3l.3.1c.1.2.1.6.1.8 0 .1-.2.2-.3.3.1.2.1.3.2.4.1.2.3.5.1.7l-.1.1.1.1v.7c0 .2 0 .3.2.4.1.1.2.1.2.3-.1.7-.6 1-.8 1.6-.1.1 0 .1.1.2.1 0 .2-.1.2-.1l.3-.3c.2-.2.3-.5.6-.8.1-.1.2-.2.1-.3 0 0-.1-.1-.1-.2-.1-.1-.2-.2-.1-.3.1-.1.2-.2.4-.3.1-.2-.2-.1-.3-.1-.4 0-.4-.5-.4-.8 0-.1 0-.3.1-.4 0-.2.2-.2.1-.4s-.6-.6-.5-.8c.1-.2.4-.4.6-.5.1 0 .4-.1.5 0 .1.1.1.4.1.5 0 .1 0 .3.1.2.1-.1.1-.2.1-.3 0-.3.8.1.6-.4-.1-.1-.2-.1-.1-.3.1-.1.1-.2.3-.2.1 0 .2.1.3.2l.5.1.7.3c.2.1.4.2.5.2.2 0 .2-.1.3-.1.4.1 0 .4-.2.5-.2.1-.4.3-.3.6.2.2.6 0 .5.4.2 0 .2-.2.3-.2.1-.4-.4-.9 0-1.2l-.2-.2c-.2 0-.2-.1-.3-.2-.2-.2-.5-.2-.8-.4-.1-.1-.1-.2-.1-.4 0-.1-.1-.2-.1-.2-.2-.2.1-.5.3-.6.5-.2 1.1-.1 1.7-.1.3 0 .5-.1.8-.3l-.2-.2c0-.1 0-.2.1-.3 0-.1.2-.1.3-.3v-.2c.1-.2.6-.2.8-.3.6-.1 1.1-.4 1.7-.4.1 0 .2 0 .2-.1s0-.2.1-.2l.4-.1c.2 0 .6-.3.8-.1v.2l.3.1c.1 0 .2-.1.4-.1.3-.1.6-.3.8 0 .1-.1-.1-.3.1-.4.2 0 .4 0 .6-.1.2-.1-.1-.2-.1-.4.1-.2.2-.3.4-.4l.5-.4c.2-.1.4-.1.6 0 .1 0 .4.1.5.2.2.2-.1.3-.2.4.2.1.5.1.8.1.3 0 .3.2.1.3-.2.1-.1.3.2.3.2-.1.2-.3.4-.3.9-.1 1.7 0 2.3.6.2.2.3.3.2.6l-.3.5c-.3.3-.7.5-1 .7-.2.1-.4.2-.7.4l-.5.4c-.1.1-.2 0-.3 0-.2 0-.2.2-.3.3.5.2 1.1-.2 1.6-.3.1-.1-.1-.1-.1-.2-.1-.1.1-.2.2-.3.3 0 .7.2 1 .1.1-.1.3.1.4.1.1.1.1.3.2.2.1 0 .1-.1.1-.1.1-.1.2-.1.2-.1.2 0 .4 0 .6-.1.2 0 .4 0 .5.1.1.1.2.2.3.1.2-.1.2 0 .3 0 .2 0 .2.1.2.2.1.2.2.1.4.1.2.1.4.1.5.1.2.1.9.1.9-.2 0-.2 0-.6.3-.6.2 0 .5-.1.7.1.1 0 .1.1.1.2s.1 0 .2 0h.5c.3 0 .5.1.8.3.3.2.4.5.4.8 0 .2 0 .3-.1.5 0 .1 0 .2-.1.2-.1.1 0 .1.1.2.3.2.5.4.8.5.3-.1.3-.5.4-.7.2-.4.6.1.9.1.2.1.4.1.5 0 .1 0 .2-.2.4-.1.4.1.8 0 1.1 0 .1 0 .3.1.3.1.1-.1.2-.1.2-.2.1-.1 0-.3-.1-.4-.1-.1-.2-.1-.1-.3 0-.1.1-.1.3-.1.1 0 .2-.1.3-.2.2-.2.2-.3.5-.2.1 0 .4.1.6.1.1 0 .3-.1.5-.1.1.1.3.1.5.1.4.1.8.1 1.3.2.2 0 .4 0 .5.1l.1.4c.2.6 1.1.2 1.4.7.1.1.1.2.1.2h.2c.2 0 .4 0 .6-.1.3 0 .7-.1 1.1-.1.5 0 1.2 0 1.5.5-.1-.4.1-.8.5-.9.5 0 .8.3.9.7 0 .2 0 .3-.2.4-.2.1-.1.4-.3.4-.4 0-.6-.2-.9-.4-.1.2-.2.3.1.4.2.1.4.1.5.3.6-.6 1.7-.1 2.4-.1.2 0 .4-.2.5-.3.1-.2.2-.2.4-.1.2 0 .3.1.3.3-.1.1-.2.1-.3.1.1.2.2.4.3.5.1.1.5.2.5.1.1-.1.1-.4 0-.5-.2-.1 0-.4 0-.5.2-.1.6 0 .7.1.1.1.1.1.2.1s.2 0 .3-.1c.2-.1.5-.1.7-.1.4 0 .8.2 1.1.3.5.2 1.1.4 1.6.7.5.3.9.5 1.3.8.1.1.1.1.2.1h.1c.1 0 .1 0 .2.1.1.2.3.2.2.5.4 0 .8.1 1.2.2l.6.3c1 1.9 1.3 2 1.3 2.1zm-61.7 16.1c.2 0 .4 0 .5.1l-.6-1c0-.1-.1-.1-.3-.1h-.3c-.2 0-.5 0-.6.1l-.5.1-.4.3c-.1.1-.2.1-.3.1-.1-.1-.1-.1-.2-.1 0 .2-.1.4-.2.6-.1.1-.3.4-.2.5.1.1.2.2.3.4.1.2.1.3.1.4l.1.4c.2.3.4.5.6.7.2.3.2.6.2.9 0 .2-.1.3-.2.5s-.1.2-.1.3c.1.3.1.5.1.7.1.2.2.4.4.5.2 0 .3.1.4 0l.4-.1c.3-.1.8 0 .9-.4l-.2-.8c-.1-.4 0-.8-.3-1.1-.2-.3-.2-.6-.2-1 0-.2 0-.4-.2-.5l-.3-.1c-.1-.1-.1-.2-.1-.4 0-.1 0-.2-.1-.2s-.2 0-.2-.1c-.2-.1-.2-.2-.2-.3 0-.1.3-.2.4-.2.6.1 1-.2 1.3-.2zm-19-6c-.1.1-.2-.1-.3-.1-.1-.1-.2-.1-.4-.1 0 .3.2.4.4.5h.1l.2-.1.4-.1c.3-.1.4.3.6.4.2.1.6-.3.8-.4.2-.1.4-.3.7-.3.1 0 .4-.1.5 0 .1.1.1.2.2.2.1.1.2 0 .4 0 0-.1 0-.2.1-.3.1-.1.4-.1.5-.1-.3-.5-.3-1.4.2-1.8.1-.1.3-.2.4-.1l.3.4c.4.1.4-.2.4-.5 0-.1 0-.2-.1-.3l-.2-.1c-.2-.1-.2-.3-.2-.5 0-.4.5-.4.8-.5h1.2c.3-.2.5-.5.9-.4-.1-.2-.5-.1-.6-.4v-.1h-.5c-.2 0-.3 0-.5.1l-1 .4c-.4.1-.5-.2-.9-.3-.2-.1-.3 0-.4-.2 0-.1-.2-.2-.1-.3.2-.3 0-.7 0-1 0-.1-.1-.3 0-.5l.4-.1c.1 0 .3-.3.3-.4l.3-.4c.2-.3.5-.5.6-.8l.2-.4c0-.1-.2-.3-.3-.3-.2-.2-.7-.1-.9 0-.3.1-.4.4-.5.7 0 .2.1.4 0 .5l-.3.3c-.2.2-.4.4-.7.4 0 .2-.3.1-.3.2-.1.1-.2.2-.2.4l-.3.8-.1.6.4.3c.2.1.4.4.3.6-.1.3-.3.5-.5.6l-.4.2v.5c0 .3-.1.7-.2 1 0 .2-.1.2-.3.3l-.4.3c-.1.1-.2.2-.4.3-.1.1-.2.1-.4.1.1.4 0 .7-.2.8-.1 0 .1-.1 0 0zm9.8 8.4c.4-.1.9 0 1.3.1.3.2.6.4 1.1.5l.7-.1.5-.1c.3-.1.4-.3.4-.6 0-.1-.3-.3-.4-.4-.2-.1-.3-.3-.5-.5-.4-.3-.7-.5-1.2-.8-.2-.1-.2-.2 0-.4.2-.1.3-.2.3-.4l.1-.5c.1-.1.2-.1.3-.3-.5 0-1 .2-1.4.5l-.5.4c.1.2.2.2.4.2.1 0 .2.1.2.2s-.2.1-.3.2c-.2.1-.4.3-.7.3-.2.1-.4-.2-.4-.3-.2-.2-.2-.4-.1-.7-.4.1-.4-.2-.7-.4-.3 0-.5.3-.7.5-.2.3-.3.6-.6.9.1.3 0 .5-.2.7-.3.4-.1 1.2.4 1.4.3-.2.9.2 1-.1.4-.1.7-.3 1-.3zm-17.5 3.8v.1l.1.1c0 .1.1.2.2.2.2.1.3-.1.6 0 .2 0 .7.2.8 0 .1-.2.3-.3.5-.4.2-.1.5-.2.7-.4.2-.2.4-.2.6-.2l1-.1c.1 0 .6.1.6 0 .1-.2.6-.1.7-.1.4 0 .7 0 1-.2.2-.1.3.1.4.2l.3.2v1c0 .2-.1.3-.3.4-.1 0-.2 0-.2.2v.3c.1.2.2.2.4.3l.6.1c.5.1 1.2.2 1.4.6l.1.2c0 .1 0 .1.1.1.2 0 .3 0 .5.1.3.1.6.3.9.3.1 0 .2 0 .2-.1v-.2l.1-.3c.1-.2.2-.4.4-.5.1-.1.6-.3.8-.2l.3.2c.1 0 .2.1.1.2.4.1.8.1 1.1.3.1 0 .2.1.2.1h.2c.2 0 .3.1.4.2.4.2.8.1 1.1 0 .2 0 .8-.3 1-.1l.3.2c.2 0 .3-.1.4-.1l.2-.1c.1 0 .1-.1.1-.2l.1-.5c.2-.6.6-1.1.6-1.7 0-.2 0-.4-.1-.6-.1-.1-.3-.1-.5-.1-.3.1-.6.4-.9.3-.3-.1-.5-.4-.9-.5-.2 0-.2.4-.5.4-.2 0-.3-.2-.4-.3-.2-.1-.3-.1-.4-.1-.3.1-.4-.5-.5-.6l-.3-1-.1-.5c0-.2 0-.3-.2-.3h-.8v.2c0 .4-.3.2-.5.2 0 .2 0 .5.2.7.1.1.5.3.5.5 0 .3-.4.1-.6.1-.3 0-.1.5-.1.7.2.4-.4.2-.6.1-.1-.1-.1-.3-.1-.4 0-.1-.1-.3-.2-.4-.1-.1-.2-.2-.3-.4 0-.1-.1-.2-.1-.4-.1-.1-.2-.2-.3-.2-.2-.1-.1-.3-.2-.4v-.8c0-.1-.1-.1-.2-.2-.3-.2-.6-.4-.8-.5-.5-.3-1-.6-1.2-1.2h-.5c-.1-.1-.1-.3-.2-.3-.1-.1-.2 0-.2.1-.1.2-.1.4-.1.6l.3.3c.1.3.2.6.4.8.1.2.3.4.6.4.1 0 .2.1.3.2v.2c.1 0 .2 0 .3.1.3.1.6.2.7.5 0 .1-.1.2-.2.2-.2 0-.3-.1-.5 0 .2.2.2.5.1.7-.1.1-.4.5-.5.2l.1-.4-.1-.4c-.1-.2-.3-.3-.5-.4-.1 0-.4 0-.4-.2 0-.1 0-.2-.2-.3-.3-.1-.5-.2-.7-.4-.2-.2-.4-.4-.6-.7-.1-.1-.1-.2-.1-.4 0 0-.1-.1-.1-.2l-.2-.1c-.2-.1-.1-.3-.4-.2l-.4.3c-.1.1-.3.1-.4.3l-.3.3c-.2 0-.4 0-.6-.1-.2-.1-.4-.2-.5-.1-.1.1-.3.1-.3.3l.1.4c0 .3-.3.5-.5.6-.1.1-.2.1-.4.2l-.2.1-.1.2c-.1.3-.4.4-.4.7 0 .1 0 .3-.1.4l-.2.4c0 .1 0 .2-.1.3 0 0-.1.1-.2.1l-.3.3c-.1.1-.3.1-.5.1h-.6c-.1 0-.2.1-.2.2.6.2.5.2.4.2 0 .1.2 0 0 0zm75 34.5c-.2-.6-.3-1.2-.7-1.7l-.3-.3-.1-.1c0-.1 0-.1-.1-.2l-.2-.3c-.1-.1-.3-.2-.3-.3-.2-.3-.4-.6-.4-.9 0-.2-.6-.5-.8-.6-.3-.1-.5-.3-.6-.6-.1-.1 0-.3 0-.5s-.2-.5-.3-.6c-.1-.4-.2-.7-.4-1-.1-.2-.2-.1-.4-.1s-.1-.2-.2-.4l-.4-.8c-.1-.2 0-.7-.3-.6-.3 0-.4.7-.4.9l-.1 2.1-.1.4c-.1.1-.1.1-.1.2-.1.1-.1 0-.2 0-.3.1 0-.4-.1-.6-.2-.3-.4.1-.6.1l-1-.5c-.3-.2-.5-.4-.5-.7.1-.3.3-.6.4-.8l.2-.4c0-.2-.2-.2-.4-.2l-1.2-.2c-.4-.1-.7-.3-1.1-.2-.2 0-.3 0-.4.1-.3.1-.2.2-.2.4.1.3-.1.7-.2.9-.1.1-.2.3-.2.4-.1.1-.1.2-.2.1l-.3-.1c-.2 0-.3-.1-.5-.2-.1-.1-.2-.2-.3-.1-.3.1-.5.4-.7.6-.2.3-.3.5-.5.7-.1.1-.3.2-.4.2-.2 0-.2.3-.3.4-.2.5-.2 1.1-.7 1.3-.1.1-.3.1-.4.1-.1 0-.3 0-.4.1-.2.2-.6.2-1 .3-.2.1-.5.2-.5.4 0 .1 0 .1-.1.1s-.1 0-.2.1-.3.1-.3.3c-.2.5-.5 1.1-.4 1.6l.1.4c.1.1.1.1.1.2v.3c0 .4.1.8.2 1.2.3.7.6 1.4.7 2.1.1.3.1.7 0 1 0 .1-.2.4-.1.5l.4.4c.4.6 1.3-.2 1.8-.3.3-.1.5-.2.8-.2l.2.1h.3c.3-.1.8-.2.9-.6 0-.1.1-.1.2-.2s.3-.1.3-.2c.1-.1.1-.1.3-.2.2 0 .3 0 .5-.1.6-.1 1.2-.2 1.8-.2h.4c.2 0 .3.1.4.2.2.2.4.4.7.5.1.1.4.2.5.4.1.2.1.4.2.5.1.3.3.7.6.9.4.3.8.2 1.2.1 0 .6.4 1 1.1 1.2.3.1.6.2 1 .2.3.1.4.1.5-.1.1-.1.2-.2.3-.2 0 .2.2.3.3.4.2.1.4.2.6.1.3-.3.6-.5 1-.6.1 0 .2 0 .3-.1.1-.1.1-.2.2-.2s.1-.2.1-.2v-.8c0-.1.1-.3.2-.4l.2-.7.2-.7.3-.3c.1-.1.1-.2.1-.3.1-.5.2-1 .2-1.5.1-.3.1-.6.1-.8l-.1-.4c-.1.1-.2-.1-.2-.2-.3-.9.1.2 0 0zm-2.1 8.8c-.3.1-.6.1-.9.1-.2 0-.6-.1-.6.2 0 .4.2.9.4 1.3.1.1.4.4.6.3.2-.1.4-.3.5-.5.2-.2.2-.4.2-.7.2-.1.1-.7-.2-.7-.2.1.1 0 0 0zm-11.6-28.4c-.1-.1-.1-1-.4-.7-.1.1-.2.3-.2.4-.1.1-.3.2-.5.3 0-.3-.4-.1-.5 0l-.4.4c-.1.1-.1.2-.1.3 0 .1.2.2.3.1.2-.1.3-.4.6-.4.1.4.3 1.1.8 1.1.4 0-.1-.5.2-.6.1 0 .1-.1.1-.1.1 0 .2-.1.2-.1.1-.2-.1-.5-.1-.7zm-3-3.4c.1.2.2.3.2.5 0 .1 0 .1-.1.2-.1 0 0 .1 0 .1 0 .1.2.1.3 0v-.2c0-.1 0-.1.1-.2.3-.1 0-.7 0-.9 0-.1.1-.2.1-.2.2-.1.2-.2.2-.4 0-.1 0-.2-.1-.4 0-.2 0-.4-.1-.5 0-.1-.3-.2-.4-.2-.2 0-.3 0-.3.2-.1.3-.1.6-.1 1l-.2.1c-.1.1 0 .1 0 .2.2.3.3.5.4.7.1.1-.1-.2 0 0zm3.8 7.9c0 .2.3.2.3 0 .1-.2.2-.6.1-.8-.1-.2-.5-.1-.6.1 0 .1.1.5.2.7 0 .1-.1-.1 0 0zm-3.9 4.6c-.3-.1-.6.1-1 .1-.1 0-.1 0-.2.1s-.1.2 0 .3c.3.2.7.1 1 0 .1-.1.4-.1.4-.2-.1-.2-.1-.3-.2-.3zm2.3-11.4c-.4 0-.2.4-.1.6 0 .1 0 .3.1.3s.3 0 .4-.1c.1-.2-.1-.8-.4-.8zm-.2 1.3l-.2-.2c0-.1-.1-.1-.2-.1-.1-.1-.2-.1-.2-.2s-.2-.1-.3-.2c-.2-.1-.3.1-.3.2 0 .2 0 .3.2.3.2.1.2.2.1.3-.2.2.1.5.2.4l.2-.1c.1-.1.2 0 .2 0 .5 0 .5-.3.3-.4zm5.7-15.4c-.2 0-.3 0-.5-.1-.2 0-.2.2-.3.3l-.2.5-.1.1h-.4c-.2.1-.3.1-.5.1-.1 0-.3-.1-.4 0-.2.1-.3.2-.4.3-.3.3-.6.7-.7 1.2-.1.3-.1 1.5.5 1.2.1 0 .2-.3.2-.4l.1-.5c.1-.2 0-.2-.1-.4 0-.1-.2-.4 0-.3l.3.6c.1.1.3 0 .4-.1l.1-.2c.1-.1.1-.1.2-.1.2 0 .2-.2.3-.2.2 0 .2 0 .4.1s.4-.3.5-.4c.2-.2.5-.3.8-.3l.4.1c.1-.1.1-.3.1-.4.1-.2.3 0 .4-.1.1-.1.1-.3.1-.4 0-.2.1-.3.1-.4.1-.1.2-.3.1-.4l-.1-.4c.1-.1.2-.3.2-.5.1-.3.1-.6 0-.9l-.2-.4c-.1-.1-.3-.2-.4 0l-.3.1c-.1.1-.1.4-.2.6.2.6.2 1.3-.4 1.7-.2 0 .5-.3 0 0zm4.1 12.4c-.3 0-.5.6-.6.8 0 .1-.1.6.2.6.3 0 .4-.4.5-.6.1-.1.2-.7-.1-.8-.1 0 .1.1 0 0zm-46.5-45.9l.2.2c.2 0 .3-.1.4-.2l.3-.2c.1 0 .2 0 .3-.1l.1-.1c.1 0 .3.1.4 0 .4-.2-.3-.4-.4-.4-.1 0-.3.1-.4.2-.2.2-.4-.1-.6 0l-.1.2c-.1 0-.2 0-.2.1-.1 0-.2.3 0 .3zm-16.3 1.4c-.3 0-.2-.5-.1-.6.2-.2.5-.2.7-.2.3 0 .6 0 .9.1l.1.1c.1.1.1 0 .2 0s.3-.1.3-.2c.1-.1.2-.1.4-.1.1 0 .3 0 .4.1.1 0 .1-.2.1-.3.1-.1.2-.1.3 0l.3-.3c.1-.1.2-.1.3-.1.3.1.6.1.8.3.1-.1.3-.3.4-.3l.4.1c.4.1.7 0 1.1 0 .3 0 .6.2.5.5 0 .2-.3.3-.5.5-.1.1-.1.2-.2.2h-.2c-.2 0-.3.1-.4.1-.2.1-.2.1-.4 0s-.4-.1-.5-.1c-.3 0-.7 0-1-.1-.1 0-.2-.1-.2-.3-.1 0-.2.1-.1.2 0 .1 0 .3.1.3.1.1.3.1.5.2l.4.2c.1.1.1.3.1.4.1.2.4.3.7.4.2.1.8.2.5.5-.3.2-.6.3-.9.3-.2 0-.4 0-.5-.1-.2-.1-.1-.2-.1-.4 0-.3-.1-.7-.5-.7-.2 0-.2.1-.3.3l-.3.3c0 .1 0 .4-.2.4-.1 0-.2.1-.3.2-.1.2-.1.6-.3.7l-.5-.2-.5-.2c-.1-.1-.4-.1-.4-.3-.1-.1.1-.2.1-.3-.3 0-.5-.4-.2-.6-.2 0-.3-.1-.5-.2-.1-.1-.3-.2-.3-.3-.1-.2-.1-.4-.1-.5.3-.1.1 0-.1 0zm1.4.8v.1c.2 0 .2.2.4.1s.2-.3.1-.5c0-.1 0-.2-.1-.2h-.3c-.1.1-.1.3-.1.5zm21.8-3.1l.2.1.3-.1c.1 0 .3 0 .4-.1.1-.1 0-.2 0-.3-.1-.2-.5 0-.7 0-.2 0-.4.3-.2.4zm-1.5.5c.2.1.5.1.7.1.1 0 .2 0 .2-.2v-.2c.1 0 .1-.1.1-.2 0-.2-.2-.2-.3-.2-.2 0-.3 0-.4.2-.1.1-.7.3-.3.5.1.1-.1 0 0 0zm-20.3 34.7c0 .1 0 .2.1.2.2 0 .3-.2.3-.4v-.3c0-.1 0-.2-.1-.2s-.4 0-.4.1c-.2-.1-.6-.2-.7 0 0 .4.6.6.8.6zm18.2-35l.5.1c.2 0 .2 0 .4-.1.1 0 .2-.1.2-.3-.1-.1-.4-.1-.5-.1v0h-.3c-.1 0-.3 0-.3.1-.1.1-.1.3 0 .3zm-20.7 33.5c0 .2.2.2.4.1l.2-.2c.1-.1 0-.2 0-.3 0-.1 0-.5-.1-.6.2-.1.1-.5 0-.6-.1-.1-.3-.1-.4 0-.1.2.1.3.2.5v.2l-.2.2v.3c0 .1 0 .2-.1.4zm9 2.4c.2 0 .2-.4 0-.4-.3-.1-.3.4 0 .4zm2.4.6c.2 0 .3-.2.4-.3.1-.2 0-.4-.2-.3-.2 0-.5.1-.6.3 0 .2.3.3.4.3zm-17.8-14.1c.2.3.4.6.4.9 0 .3.2.3.5.3s.1.3.3.4c0 0 .1 0 .1.1v.2c0 .1 0 .2-.1.2l-.2.1-.2.4-.3.4c-.1.1-.1.3.1.3.2.1.2.2.2.3-.1.1-.6.5-.3.6.2.1.7-.1.8-.3.4.1.8 0 1.1-.1.2-.1.4-.1.6-.1.1 0 .2 0 .2-.1.1-.1 0-.3 0-.4 0-.2.1-.2.2-.3.2-.2.2-.6-.2-.7h-.4l-.2-.3c0-.2-.1-.3-.1-.4-.1-.2-.2-.2-.3-.3-.2-.3-.2-.5-.3-.8 0-.1-.1-.3-.3-.3 0-.1 0-.1-.1-.2 0-.1 0-.2.1-.2.1-.2.2-.4.2-.6.1-.2-.3-.2-.4-.2-.2 0-.3 0-.3-.1s0-.1.1-.2c.1-.2-.1-.3-.3-.3-.2 0-.5 0-.6.1l-.2.2c-.1.1-.2.1-.2.3 0 .2.1.4.1.7 0 .1-.1.2 0 .4zm26-12.8c.3 0 .6.1.8.3.1.1.5.7.7.6.2-.1.6.1.7-.1.1-.1-.1-.2-.2-.3l-.3-.4c-.2-.6-.1-1.3.4-1.8.2-.2.5-.3.4-.6-.1-.2.1 0 .2-.1.1 0 .2-.3.4-.4l.8-.6c.1-.1.3-.1.5-.2l.4-.3c.6-.4 1.3-.4 2-.7.2-.1.5-.2.6-.5.1-.1 0-.2-.1-.3-.2-.1-.2-.1-.4-.1-.7.1-1.2.6-1.8.7-.2 0-.4.1-.6 0-.3 0-.4 0-.6.1l-.5.3c-.2.1-.4 0-.5.2-.2.3-.6.4-.9.6-.3.1-.3.1-.3.4l-.1.5-.3.3c-.2.1-.4.1-.3.3.1.1.2.1.1.3-.2 0-.4.1-.5.3l-.4.8-.4.3c-.1.1 0 .4.2.4zm12.1-1.8c-.4 0-.4.7 0 .7.2 0 .4-.2.4-.3 0-.3-.2-.4-.4-.4zm31.7-2c.1 0 .4 0 .4-.1.1-.1 0-.3-.1-.4-.4-.1-.8-.3-1.2-.3-.1 0-.3 0-.4.2-.1.1.2.2.2.3.4.3.7.3 1.1.3zm-5.7-.2c.2.1.8.6 1 .4.2-.1.1-.2.3-.1.1.1.4-.1.5-.1.4 0 1 0 1.3-.2.2-.1.2-.3.2-.5s-.2-.3-.5-.3h-.6c-.2-.1-.3-.3-.5-.3s-.2.1-.2.2c0 .2-.1.1-.3 0-.3-.2-1-.5-1.3-.1.1.1-.1.8.1 1 .1 0 0-.1 0 0zm-20.6-4.7c.1.3.8-.1.5-.3-.1-.1-.4-.1-.5-.1-.2 0-.1.3 0 .4zm22.3 6.2c.1.2.6.2.8.2.1 0 .4.1.5 0 .2-.1.1-.3 0-.4-.2-.2-.6-.3-.9-.3-.1 0-.4.1-.4.2s-.1.3 0 .3c0 .1-.1 0 0 0zm-18.6-4.3c.1.1.3 0 .4-.1.2-.1.3-.1.6-.1.4 0 .8-.1 1.2-.2.3-.1.7-.3.3-.5-.3-.2-.6-.5-1-.4.1-.3-.2-.2-.4-.2-.2.1-.5.2-.6.4-.2.2-.7.9-.5 1.1zm-22.5 8.7c-.4 0-.6.6-.1.6.2 0 .4-.1.5-.2.2-.3-.2-.4-.4-.4zm4.6-.8c-.2-.1-.3.1-.2.3.1.1.2.2.4.3.1.1.3 0 .3-.2-.1-.3-.4-.4-.5-.4-.1-.1.2.1 0 0zm14.5-10.3c.1 0 .2.1.3.2 0 .1.2.2.3.1.1 0 .3-.2.3 0s-.1.2-.2.3c-.1.1 0 .2.1.3.1 0 .1.2.2.3.1.1.3.1.4.1l.2-.1c.1.1.1.1.2.1.3.2.7.3 1 .3.2 0 .4 0 .5-.1.1-.1.1-.2.1-.3 0-.2.3-.7.1-.9-.2-.2-.6-.2-.8 0 0-.2-.2-.2-.4-.3-.1 0-.1-.1-.1-.2v-.3c.1-.2 0-.3-.2-.4-.1-.1-.4-.4-.6-.3-.3.1-.5.2-.7.3-.2 0-.5.1-.5.3 0 .1.1.2 0 .2-.3.1-.4.3-.2.4zm-45.9 25.2c0 .1.2.2.3.3.2 0 .4 0 .6-.1l.6-.3c.2-.1.3-.1.4-.3.1-.4.1-.8.2-1.3 0-.1 0-.2.1-.2.1-.1-.1-.2-.1-.3-.1-.2-.2-.2-.5-.2-.2 0-.8.1-.9.4 0 .1.1.3 0 .3h-.3c-.1 0-.3.2-.3.3 0 .2.1.3.2.5l.2.2-.2.2c-.2.2-.3.3-.3.5zm40.2-18.1c.4 0 .3-.6.1-.7-.5-.2-.6.6-.1.7zm-90.6-1.3c.1.2.3.1.4.1.2 0 .3 0 .5.1s.3 0 .5-.2c.2-.1.3-.2.4-.4.1-.2.2-.1.3.1.1.3.3 0 .4-.1.1-.1.4-.2.4-.3 0-.1-.1-.3 0-.4.1-.1.2-.2.1-.3-.1-.2-.2-.2-.4-.1-.1.1-.2.3-.4.2-.2 0-.5 0-.7.1-.4.1-.6.5-1 .7l-.3.2c-.1 0-.2 0-.3.1l.1.2zm20.4 8c.2 0 .7-.1.7-.3l-.1-.4c0-.1 0-.2-.2-.2-.3 0-.5.1-.6.4-.1.1-.1.5.2.5zm-4.2 3.3c0 .5.7-.2.8-.3.2-.1.3-.2.5-.2s.1 0 .2.1.1.1.2.1c.2 0 .3.2.5 0 .2-.1.2-.2.1-.4 0-.2-.4-.1-.5-.1.1-.4-.3-.4-.5-.6-.3-.2-.6-.4-.9-.4.1-.3-.2-.4-.4-.2s-.2.5-.2.8c0 .1 0 .4-.1.5-.1.1-.3.1-.2.3.1.2.3.1.4.1.1 0 .1.1.1.3zm-3.3-10.8c0-.3-.5-.4-.7-.3-.2.1-.6.6-.3.8.2.2.6.3.9.3.4-.1.1-.5.1-.8zm-3.2 2.6c-.3.1-.3-.1-.5-.2s-.4.2-.4.3c0 .2.3.3.4.4.1.1.2.1.3.1l.3.1c.3.2.4.8.9.6.1 0 .2-.1.2-.1l.1-.1h.2c.2-.1.4-.3.4-.5 0-.1.1-.5-.1-.6-.2-.1-.4-.2-.4-.4v-.3c.1-.1.2-.2.2-.3.1-.2-.3-.3-.5-.3l-.8.2c-.1 0-.2 0-.4.1-.1 0-.2.2-.2.2-.2.3.2.3.3.4.2.1.2.4 0 .4zm34.9 2.3c.3-.2-.2-.3-.3-.4-.3-.1-.5-.1-.7-.2.1-.1.1-.3 0-.4l-.1-.2.3-.1c.4 0 .3.5.6.6.2.1.3-.1.3-.2.1-.2.3-.4.3-.6.1-.2 0-.3-.2-.5.1-.1.2-.2.2-.4v-.5c0-.2-.1-.3.1-.5.1-.1.3-.1.5-.1.3-.1.2-.3.2-.5 0-.1 0-.3.2-.3h.3c.4-.3-.2-.5-.5-.4l-.1-.3c0-.2.4-.1.5-.1.4 0 .1-.5.1-.7 0-.1-.1-.3-.1-.5s-.3-.1-.5-.1c-.1 0-.3 0-.4-.1-.1-.2.1-.3.2-.4.2-.2.5-.1.8 0 .2 0 .8 0 .7-.4 0-.1-.2-.2-.3-.2l-.3-.1c.1-.1 0-.2 0-.2 0-.3-.8-.3-1-.3.1-.3.2-.6.5-.8l.3-.3.3-.3c0-.1-.1-.2 0-.3 0-.2.2-.1.4-.1.3-.1.4-.3.4-.5.3 0 .4-.2.5-.4 0-.1.1-.2.2-.3l.4-.1.3-.3c.1-.1.2-.1.3-.1.3-.1.5-.3.6-.5.2-.4-.3-.4-.6-.4h-1.2c-.1 0-.4-.1-.4 0-.1.1-.2.2-.3.4h-.4c-.2 0-.4 0-.5-.1-.4-.2-.4.2-.7.2-.1 0-.1-.3-.1-.4 0-.2-.1-.3-.3-.3-.1 0-.2-.2-.2-.3l.3-.2c.3-.3-.3-.4-.5-.5-.1-.1-.3-.1-.4-.1-.1 0-.4 0-.5-.1-.1-.2-.4-.4-.6-.5-.3-.1-.6-.1-.9-.1h-.5c-.1 0-.1-.1-.2-.2h-2.7c-.2 0-.4.1-.6.2-.2 0-.4 0-.6.1-.1 0-.3.1-.3.3 0 .1.2.2 0 .3-.1-.2-.5-.5-.7-.4-.1.1-.1.2-.3.2l-.5-.1c-.1-.1-.2-.2-.3-.1l-.4.2c-.3.1-.8 0-1 .2-.1.1 0 .2 0 .3l-.3.1c-.1.1 0 .2 0 .3.1.1 0 .1-.1.1h-.3s-.1-.2-.2-.3h-.5c-.2 0-.4-.1-.5 0-.2.2.2.5.1.7-.1.3-.4-.2-.4-.3-.1-.2-.6-.3-.8-.1-.1.1-.1.1-.2 0h-.8c-.7 0-1.5.3-2.1.5-.1 0-.3.1-.3.2s.1.3 0 .4c0 .1-.1.2-.2.2h-.6c-.3.1-.5.2-.7.4l-.4.3c-.1.1-.1.2-.2.4-.1.1-.2.1-.3.3-.1.2.2.1.3.2.1.1.2 0 .4 0 .3 0 .2.3.1.4-.1.2-.3.4-.6.5-.3.1-.7 0-1 .2-.2.2-.5.3-.8.4l-.5.1c-.2 0-.3.1-.4.3-.4.5 1.1.8 1.4.9.2.1.2 0 .4-.1.1-.1.3-.1.4-.1.3 0 .7.1.7.4 0 .3-.4.5-.6.5-.2 0-.3 0-.5-.1s-.2-.2-.4-.2-.7 0-.8.2c-.1.3.7.2.8.4-.2.4.2.5.6.6.1 0 .4.1.5 0 0-.1.1-.1.1-.1.1 0 .2 0 .3-.1 0 .3.5.2.6.1.1-.1.1-.1.2 0 .2.1.2-.1.4-.1s.6.1.8.2c.3.1.6.2.8.3.5.2.8.6 1.1 1 .1.2.2.4.3.7 0 .1.1.2.1.4s.1.2.2.3l.1.1v.2l.2.2-.1.4-.2.5c-.1.2-.1.3.1.4.1.1.3.2.4.1l.3-.3c.1 0 .4 0 .4.1 0 .2.1.2.3.2h.2c.1 0 .1.1.1.2l.1.4v.2c-.1.1-.2 0-.3-.1-.2 0-.4-.1-.5-.2-.1 0-.3-.2-.4-.1-.3.2-.3.5-.3.8-.1.1-.1.3.1.4.1 0 .1 0 .2.1 0 .1 0 .1.1.1.2.1.8 0 .9-.2.1-.2-.1-.3.2-.3.1 0 .3-.1.4 0 .1 0-.1.3-.1.3l-.2.8c-.1.1-.1.1-.3.2l-.4.1-.3.4-.2.4c-.1.1 0 .3 0 .4 0 .1.1.2.2.2-.1.1-.1.2-.1.3 0 .3.3.6.4.8.1.1 0 .3 0 .4 0 .1.1.3.2.4 0 .1.1.1.1.1.1.1.1.1.1.2l.2.5c.1.3.3.6.5.9.2.2.3.5.5.6.2.2.3.5.7.4.3 0 .6 0 .8.2.1.1 0 .3.2.4l.5-.1c.5-.2.8-.8.9-1.3v-.5c0-.2 0-.2.1-.3.2-.2.4-.5.5-.7.1-.3.1-.5.1-.8 0-.2-.1-.2.1-.3.1-.1.3-.1.3-.2s0-.2.1-.2.2 0 .4-.1l.3-.2c0-.1 0-.1.1-.1s.1 0 .2.1.7.1.8-.1c0-.1.2-.2.3-.2l.4-.1.6-.9c.2-.2.4-.6.7-.6l2-.3c.2 0 .3-.2.4-.3l.5-.3c-.2-.3.1-.5.4-.7zm-31.8-9c-.2.1-.4-.4-.5-.5-.1-.2-.1-.5-.1-.7 0-.2.2-.4.5-.5v-.2c0-.1.1-.1.2-.2.2-.1 0-.2 0-.3.1-.1.2-.1.3-.1.3 0 .5 0 .7.1.4.2.6.5.8.9v.1l.3-.1c.1 0 .2 0 .4.1.1.1.2.1.4.1.1 0 .2 0 .3.1 0 .1.2.5.3.2 0-.1 0-.3.1-.4h.1c0-.1-.1-.1-.1-.1 0-.1 0-.1-.2-.1h-.3c-.2 0-.5-.1-.7-.2-.2-.1-.3-.3-.3-.6-.1-.2-.5-.1-.3-.4-.2 0-.2.1-.4.2-.1 0-.3-.2-.2-.3.1-.2.6-.3.8-.4.2-.1.4-.1.6-.1.1 0 .3-.1.5 0l.1.1.1-.2c.1-.1.2-.2.3-.2.1-.1.3-.2.4-.1.1.1.3.1.5.2.1.1.2.2.3.1l.2-.2c0-.1.1-.3.2-.3h.3c.2.1.1-.3.4-.2.1 0 .3.1.2-.1-.1-.2.2-.2.4-.2.1 0 .8.1.8 0 0-.2.7-.2.9-.2.2 0 .6 0 .7.2.1 0 .2-.1.2-.1.1-.2.2-.1.4-.1h1.1l1 .1c.2 0 .5 0 .5.3.2-.1.5-.1.7-.1.2 0 .6-.1.7.1.1.1.1.2.2.2.1.1.2.1.3.1.2 0 .5 0 .6.1.3.3-.8.7-1 .8-.3.1-.6.1-.8.2-.2 0-.6 0-.8.1-.1.1-.1.1-.1.2.1.1.2.1.4 0 .1 0 .3-.1.3.1 0 .1 0 .2-.1.2l-.7.3c-.1.1-.1.2-.3.2l-.3.1c-.2.1-.3.4-.5.4l-.2.1-.2.2-.3.2c-.1.1-.1.3-.2.3-.1.1-.5.1-.6-.1-.2.4-.8.4-1.2.4v.1l-.1.1c0 .1 0 .2.1.2.1.1.3.1.4.1.2.1.1.3 0 .4-.1.2-.3.5-.5.6h-.5c-.1 0-.4 0-.4.1s.2.2.1.3l-.2.3-.3.1s-.1.2-.1.3l.3-.1c.2 0 .2.2.2.3-.1.2-.3.3-.5.4-.2 0-.7.3-.9 0-.1-.3-.5-.1-.7 0h-.5c-.1 0-.2-.1-.4 0l-.2.2h-.5c-.3 0-.7 0-1-.1-.1 0-.1 0-.2-.1-.1 0-.1.1-.2.2l-.4.4c.1.1.2.1.3.3 0 .1.1.1.2.1h.3l.5.1h.4c.7-.2 1.5-.4 2.2-.2.3.1.7.2.6.5-.1.1-.1.3-.3.2-.1.1 0 .1 0 .2.2.3-.6.4-.7.4h-.4c-.1 0-.2-.2-.2-.2-.1 0-.1.1-.1.2-.1.1-.1 0-.2 0h-.6l-1 .1c-.2 0-.3 0-.5-.1-.1-.1-.3.1-.5.1s-.4-.1-.5-.1c-.1 0-.4 0-.4-.1-.1-.1-.1-.4-.1-.5 0-.2 0-.3-.1-.5 0-.2-.1-.7-.4-.6-.3.1-.7.1-1-.1-.2-.1-.5-.4-.4-.7.1-.2.8-.1 1 0 .2.1.4.2.5.4.4-.3 1-.1 1.3.2l.6-.6c.1-.1.3-.2.4-.2.2-.1.1-.2 0-.3-.1-.1-.2-.2-.2-.3 0-.1.2-.1.3-.2 0 0 .1-.1.2-.1 0-.1 0-.1-.1-.2s-.1-.2-.1-.3c-.2 0-.3.1-.4.2-.1.2-.2.1-.4.1-.3 0-.8.3-1.1.1-.2-.1-.3-.3-.4-.4-.1-.1-.2-.2-.2-.4-.2-.5.3-.3.5-.5.1-.3-.3-.3-.6-.2-.1 0 .4-.1 0 0zm4.1-1.4v.2c.3 0 .6 0 .9.2.2.2.4.4.7.6.1-.2 0-.4-.2-.5-.1-.1-.4-.2-.2-.4l.4-.1.4-.1c.3-.1.6-.2.8-.3-.1-.1-.1-.4-.3-.4-.1.5-.7.6-1.2.6l-.4.1c-.1-.1-.2-.2-.3-.1-.2.2-.4.2-.7.1l.1.1zm-14.7 5.6c0 .1.1.3.2.3h.9c.1 0 .2 0 .2-.1s.1-.2.2-.2c.2 0 .1.1 0 .2s-.1.2-.1.4c0 .4.7.2.9.2.1 0 .4 0 .5-.1.1-.1.2-.2.3-.2.3-.1.7-.1 1-.1.2 0 .9 0 1-.2.1-.1.1-.3.1-.4l.1-.6c-.2-.3-.5.2-.8.1-.3-.2-.2-.5-.4-.8-.2-.3-.5 0-.7.2-.4.3.1.4.2.7.1.1 0 .3-.2.3-.1.1-.2.1-.4.1-.1 0-.2 0-.2-.1l-.1-.2c-.1-.1-.2-.1-.4-.2s-.2-.2-.3-.3c-.1-.1-.2-.1-.3 0-.2 0-.2-.1-.4-.2-.5-.3-1.1.7-1.3 1.2 0 .1.2-.4 0 0zm2-2.4c.1.3.3.3.6.3.2 0 .7 0 .8-.1.1-.1.1-.2.1-.3 0-.1 0-.2.1-.3.1-.2.3-.4.1-.6-.1-.2-.4-.2-.6-.2-.1 0-.7.2-.5.5.7.5-.7.2-.6.7zm5 1.3v.4c0 .2 0 .1-.2.2.1-.2-.2-.5-.3-.6-.1-.1-.4-.4-.6-.2-.2.1.1.5.2.7.1.1.4.3.6.2-.2.4.7.1.9.2-.1.2.1.4.1.5.1.2.4.1.6.1.2-.1.3-.1.3-.4.1-.2.3-.5.3-.7.1-.2 0-.4-.1-.6-.1-.1-.5-.1-.7-.1-.2-.1-.8-.1-1.1.3zm12.7 39.9c-.1-.1-.3 0-.4 0-.3.1-.1.3.1.4l.3.4c.1.1.1.1.2 0 .1 0 .1-.1.3 0 .2.1 1.1 0 .8-.3-.4-.2-.9-.2-1.3-.5-.1 0 .2.1 0 0zm-9.9-41.4l.1.3c0 .1.2.2.3.1.3 0 .6.1.8-.1.3-.3-.3-.3-.4-.3l-.2-.1v-.5c0-.2-.3-.4-.5-.5-.2-.1-.6-.3-.9-.2-.3.1-.1.6 0 .8.1.3.4.5.8.5zm7.2 41.3c.1.2.7.1.8.1.4 0 .2-.4 0-.5-.2-.2-.6-.3-.9-.5l-.4-.3c-.1-.1-.2-.1-.4-.1-.1 0-.2-.1-.3 0-.1-.1-.1-.1-.2-.1-.1-.1-.2-.1-.4-.2s-.8-.1-.5.3c.1.1.1.3.2.3s.2 0 .4.1c.3.1.5.3.8.2 0 .2.1.3.3.4l.2.1.2.1c.2 0 .2 0 .2.1zm-11.4-42.6l.5.1c.1 0 .2.2.1.3l-.2.1c0 .1 0 .2.1.2l.6.1h.4v.1c0 .1.1.1.2.1h.2c.2.1.3.3.5.3.1 0 .3-.1.3-.2 0-.2-.1-.4-.2-.5 0-.1-.1-.3-.2-.4-.1-.1-.2-.2-.3-.2h-.3c0-.1-.1-.2-.1-.2-.1-.1-.3-.1-.5-.1l-.6-.1c-.2-.1-.4 0-.6 0-.1.1 0 .4.1.4z"/><path fill="#fff" d="M384.6 136.6h-1.4c0-42.5-34.6-77-77-77-42.5 0-77 34.6-77 77h-1.4c0-43.3 35.2-78.5 78.5-78.5 43.1 0 78.3 35.2 78.3 78.5z"/><rect x="246.2" y="51.4" fill="#fff" width="14.6" height="14.6"/><rect x="349.7" y="51.4" fill="#fff" width="14.6" height="14.6"/><rect x="221.4" y="129.7" fill="#fff" width="14.6" height="14.6"/><rect x="376.5" y="129.7" fill="#fff" width="14.6" height="14.6"/><rect x="253.7" y="58.4" fill="#fff" width="103.5" height="1.4"/><rect x="298.1" y="51.4" fill="#DD4628" width="14.6" height="14.6"/><path fill="#fff" d="M313.5 66.8h-16.1v-16.1h16.1v16.1zm-14.7-1.4h13.2v-13.3h-13.2v13.3z"/><rect x="100.2" y="254.3" fill="#231F20" width="188.2" height="80.6"/><g fill="#666"><rect x="105.1" y="259.3" width="13.5" height="13.5"/><rect x="123.4" y="259.3" width="13.5" height="13.5"/><rect x="141.7" y="259.3" width="13.5" height="13.5"/><rect x="160" y="259.3" width="13.5" height="13.5"/><rect x="178.4" y="259.3" width="13.5" height="13.5"/><rect x="196.7" y="259.3" width="13.5" height="13.5"/><rect x="215" y="259.3" width="13.5" height="13.5"/><rect x="233.3" y="259.3" width="13.5" height="13.5"/><rect x="251.6" y="259.3" width="13.5" height="13.5"/><rect x="270" y="259.3" width="13.5" height="13.5"/><rect x="105.1" y="278.3" width="13.5" height="13.5"/><rect x="123.4" y="278.3" width="13.5" height="13.5"/><rect x="141.7" y="278.3" width="13.5" height="13.5"/><rect x="160" y="278.3" width="13.5" height="13.5"/><rect x="178.4" y="278.3" width="13.5" height="13.5"/><rect x="196.7" y="278.3" width="13.5" height="13.5"/><rect x="215" y="278.3" width="13.5" height="13.5"/><rect x="233.3" y="278.3" width="13.5" height="13.5"/><rect x="251.6" y="278.3" width="13.5" height="13.5"/><rect x="105.1" y="297.2" width="13.5" height="13.5"/><rect x="123.4" y="297.2" width="13.5" height="13.5"/><rect x="141.7" y="297.2" width="13.5" height="13.5"/><rect x="160" y="297.2" width="13.5" height="13.5"/><rect x="178.4" y="297.2" width="13.5" height="13.5"/><rect x="196.7" y="297.2" width="13.5" height="13.5"/><rect x="215" y="297.2" width="13.5" height="13.5"/><rect x="233.3" y="297.2" width="13.5" height="13.5"/><rect x="251.6" y="297.2" width="13.5" height="13.5"/><polygon points="270,278.3 270,286.3 270,291.8 270,310.8 283.5,310.8 283.5,291.8 283.5,286.3 283.5,278.3"/><rect x="105.1" y="316.2" width="13.5" height="13.5"/><rect x="123.4" y="316.2" width="13.5" height="13.5"/><rect x="141.8" y="316.2" width="86.7" height="13.5"/><rect x="233.3" y="316.2" width="13.5" height="13.5"/><rect x="251.6" y="316.2" width="13.5" height="13.5"/><rect x="270" y="316.2" width="13.5" height="13.5"/></g><path fill="#ABABAB" d="M145.6 126.9h128.8c8.2 0 14.8 6.6 14.8 14.8h-143.7v-14.8z"/><path fill="#E5E5E5" d="M145.5 126.9c8.2 0 14.8 6.6 14.8 14.8h99.2v112.6h-128.8v-112.6c0-8.2 6.7-14.8 14.8-14.8z"/><g fill="#ABABAB"><rect x="144.4" y="184" width="104.6" height="1.8"/><rect x="144.4" y="188.6" width="104.6" height="1.8"/><rect x="144.4" y="193.3" width="104.6" height="1.8"/><rect x="144.4" y="197.9" width="104.6" height="1.8"/><rect x="144.4" y="202.5" width="104.6" height="1.8"/><rect x="144.4" y="207.2" width="104.6" height="1.8"/><rect x="144.4" y="211.8" width="104.6" height="1.8"/><rect x="144.4" y="216.3" width="104.6" height="1.8"/><rect x="144.4" y="221" width="104.6" height="1.8"/><rect x="144.4" y="225.6" width="104.6" height="1.8"/><rect x="144.4" y="230.2" width="104.6" height="1.8"/><rect x="144.4" y="234.9" width="104.6" height="1.8"/><rect x="144.4" y="239.5" width="104.6" height="1.8"/><rect x="144.4" y="244.1" width="104.6" height="1.8"/></g><rect x="145.7" y="149" fill="#fff" width="30.3" height="31"/><rect x="181.6" y="149" fill="#fff" width="30.3" height="31"/><rect x="217.9" y="149" fill="#fff" width="30.3" height="31"/><g fill="#ABABAB"><path d="M176.7 180.6h-32.4v-32.4h32.4v32.4zm-30.6-1.8h28.8v-28.8h-28.8v28.8z"/><rect x="139" y="164.2" transform="matrix(.707 .707 -.707 .707 163.441 -65.342)" width="43.2" height=".9"/><rect x="160" y="142.8" transform="matrix(.708 .707 -.707 .708 163.033 -65.348)" width=".9" height="43.2"/></g><g fill="#ABABAB"><path d="M213 180.6h-32.4v-32.4h32.4v32.4zm-30.6-1.8h28.8v-28.8h-28.8v28.8z"/><rect x="175.3" y="164.2" transform="matrix(.707 .707 -.707 .707 174.081 -91.015)" width="43.2" height=".9"/><rect x="196.3" y="142.8" transform="matrix(.708 .706 -.706 .708 173.42 -90.976)" width=".9" height="43.2"/></g><g fill="#ABABAB"><path d="M249.3 180.6h-32.4v-32.4h32.4v32.4zm-30.6-1.8h28.8v-28.8h-28.8v28.8z"/><rect x="211.6" y="164.2" transform="matrix(.707 .707 -.707 .707 184.696 -116.686)" width="43.2" height=".9"/><rect x="232.7" y="142.7" transform="matrix(.708 .706 -.706 .708 184.013 -116.604)" width=".9" height="43.2"/></g><path fill="#DDB38F" d="M171.2 336.5c0 2.4 2 4.3 4.4 4.3h1.7c2.4 0 4.4-1.9 4.4-4.3v-34.5c0-2.4-2-4.3-4.4-4.3h-1.7c-2.4 0-4.4 1.9-4.4 4.3v34.5z"/><path fill="#DDB38F" d="M157.7 336.5c0 2.4 2 4.3 4.4 4.3h1.7c2.4 0 4.4-1.9 4.4-4.3v-34.5c0-2.4-2-4.3-4.4-4.3h-1.7c-2.4 0-4.4 1.9-4.4 4.3v34.5z"/><path fill="#DDB38F" d="M144.3 357.1c0 2.4 2 4.3 4.4 4.3h1.7c2.4 0 4.4-1.9 4.4-4.3v-34.5c0-2.4-2-4.3-4.4-4.3h-1.7c-2.4 0-4.4 1.9-4.4 4.3v34.5z"/><path fill="#DDB38F" d="M130.9 357.1c0 2.4 2 4.3 4.4 4.3h1.7c2.4 0 4.4-1.9 4.4-4.3v-34.5c0-2.4-2-4.3-4.4-4.3h-1.7c-2.4 0-4.4 1.9-4.4 4.3v34.5z"/><path fill="#DDB38F" d="M181.6 333.9v44.3c0 3.3-4 6-9 6h-32.9c-4.9 0-8.9-2.7-8.9-6v-44.3h50.8z"/><rect x="137.2" y="380.6" fill="#DDB38F" width="37.7" height="16.5"/><path fill="#EAC7AB" d="M158.9 299.7v4.4c0 .7.5 1.2 1.2 1.2h5.6c.7 0 1.2-.6 1.2-1.2v-4.4h-8z"/><path fill="#EAC7AB" d="M172.4 299.7v4.4c0 .7.6 1.2 1.2 1.2h5.6c.7 0 1.2-.6 1.2-1.2v-4.4h-8z"/><path fill="#DDB38F" d="M206.8 346.5l-.7-.7c-1.9-1.9-5-1.9-6.9 0l-27.6 27.6c-1.9 1.9-1.9 5 0 6.9l1.4 1.4c1.9 1.9 5 1.9 6.9 0l21.4-21.5 9.6-9.6-4.1-4.1z"/><path fill="#EAC7AB" d="M205.6 347.1l-3.6 3.6c-.6.6-.6 1.4 0 2l3.5 3.5 4.6-4.6-4.5-4.5z"/><rect x="159.3" y="318.1" fill="#EAC7AB" width="7.5" height=".7"/><rect x="159.3" y="320.8" fill="#EAC7AB" width="7.5" height=".7"/><rect x="172.7" y="318.1" fill="#EAC7AB" width="7.5" height=".7"/><rect x="172.7" y="320.8" fill="#EAC7AB" width="7.5" height=".7"/><path fill="#DDB38F" d="M237.9 306c0 2.4-2 4.3-4.4 4.3h-1.7c-2.4 0-4.4-1.9-4.4-4.3v-34.5c0-2.4 2-4.3 4.4-4.3h1.7c2.4 0 4.4 1.9 4.4 4.3v34.5z"/><path fill="#DDB38F" d="M251.3 332.3c0 2.4-2 4.3-4.4 4.3h-1.7c-2.4 0-4.4-1.9-4.4-4.3v-34.5c0-2.4 2-4.3 4.4-4.3h1.7c2.4 0 4.4 1.9 4.4 4.3v34.5z"/><path fill="#DDB38F" d="M264.7 332.3c0 2.4-2 4.3-4.4 4.3h-1.7c-2.4 0-4.4-1.9-4.4-4.3v-34.5c0-2.4 2-4.3 4.4-4.3h1.7c2.4 0 4.4 1.9 4.4 4.3v34.5z"/><path fill="#DDB38F" d="M278.1 332.3c0 2.4-2 4.3-4.4 4.3h-1.7c-2.4 0-4.4-1.9-4.4-4.3v-34.5c0-2.4 2-4.3 4.4-4.3h1.7c2.4 0 4.4 1.9 4.4 4.3v34.5z"/><path fill="#DDB38F" d="M227.4 303.4v44.3c0 3.3 4 6 8.9 6h32.9c4.9 0 8.9-2.7 8.9-6v-44.3h-50.7z"/><rect x="234.7" y="351.9" fill="#DDB38F" width="37.7" height="16.5"/><path fill="#EAC7AB" d="M228.6 269.8v4.4c0 .7.5 1.2 1.2 1.2h5.6c.7 0 1.2-.6 1.2-1.2v-4.4h-8z"/><path fill="#DDB38F" d="M202 315.9l.7-.7c1.9-1.9 5-1.9 6.9 0l27.6 27.6c1.9 1.9 1.9 5 0 6.9l-1.4 1.4c-1.9 1.9-5 1.9-6.9 0l-21.4-21.5-9.6-9.6 4.1-4.1z"/><path fill="#EAC7AB" d="M203.3 316.5l3.6 3.6c.6.6.6 1.5 0 2l-3.5 3.5-4.6-4.6 4.5-4.5z"/><rect x="228.9" y="287.1" fill="#EAC7AB" width="7.5" height=".7"/><rect x="228.9" y="289.7" fill="#EAC7AB" width="7.5" height=".7"/><rect x="306" y="225.5" fill="#231F20" width="100.6" height="149"/><rect x="312.9" y="243.1" fill="#666" width="86.8" height="121.3"/><rect x="355.8" y="232.6" fill="#69CAD4" width=".9" height="10.4"/><path fill="#DDB38F" d="M354 294.2l4.6-6.4 4-5.6 2.2-3.1c.9-1.3 2.2-2.1 3.6-2.3 1.7-.5 3.6-.2 5.1.9l37.6 20.1c2.7 1.9-10.9 2.3-12.8 4.9l-1.4 1.9c-1.9 2.6-5.6 3.3-8.2 1.4l-6.5-4.7-1.9-1.3-1.7-1.2-7-5-3.7 5.2c-1.9 2.6-5.6 3.3-8.2 1.4l-1-.7-5.8-4.1 1.1-1.4z"/><path fill="#AA7D50" d="M353.4 293.2l-2.2 3c-.9 1.3-1.3 2.7-1.1 4.2 0 1.8.9 3.5 2.4 4.6l6.5 4.8 5.6 4.1 1.7 1.2 9.5 7c2.6 1.9 6.3 1.4 8.3-1.2l1.4-1.9c1.9-2.6 1.4-6.3-1.2-8.3l-6.5-4.8-1.8-1.4-1.7-1.2-6.9-5.1 3.8-5.2c1.7-2.4-17.8.2-17.8.2z"/><path fill="#DDB38F" d="M366.5 330.5h35.5c4 0 7.2-4.8 7.2-10.8v-16.2c0-6-3.2-6.2-7.2-6.2l-35.5-11.3v44.5z"/><rect x="403.9" y="296.5" fill="#DDB38F" width="19.9" height="29"/><path fill="#DDB38F" d="M349.2 314.8l1-.4c2.7-1 4.1-4 3.1-6.7l-5.8-16.1c-1-2.7-4-4.1-6.7-3.1l-1.9.7c-2.7 1-4.1 4-3.1 6.7l7.6 21 5.8-2.1z"/><path fill="#DDB38F" d="M335.2 292.3v2.1c0 2.9 2.3 5.2 5.2 5.2h25.6c2.9 0 5.2-2.3 5.2-5.2v-2.1c0-2.9-2.3-5.2-5.2-5.2h-25.6c-2.9-.1-5.2 2.3-5.2 5.2z"/><rect x="417.5" y="291.3" fill="#01A79D" width="29.8" height="39.5"/><path fill="#454545" d="M348.4 317c.2-.2.3-.5.1-.8-.2-.2-.5-.3-.8-.1l-9.5 7.4c-.2.2-.3.5-.1.8.2.2.5.3.8.1l9.5-7.4z"/><path fill="#231F20" d="M394.7 286.6l-.1.1-2.4 1.8-15.4 12-.7-.9 15.4-12-.5-.6-42.2 32.9c-.9.7-8.3 4.9-9 4l-.8-1c-.7-.9 5.2-7.1 6.1-7.7l42.2-32.9 2.5-2 4.9 6.3z"/><path fill="#454545" d="M394.7 286.6c.9-.7.4-2.6-.9-4.4-1.4-1.7-3.1-2.6-4-2-.9.7-.4 2.6.9 4.4 1.4 1.8 3.2 2.7 4 2z"/><path fill="#DDB38F" d="M347.7 321.7v2.5c0 3.5 2.8 6.3 6.3 6.3h30.9c3.5 0 6.3-2.8 6.3-6.3v-2.5c0-3.5-2.8-6.3-6.3-6.3h-30.9c-3.5 0-6.3 2.8-6.3 6.3z"/><rect x="231.7" y="363.9" fill="#fff" width="44.9" height="65.3"/><rect x="253.9" y="363.9" fill="#D3D3D3" width="22.7" height="65.3"/><rect x="226.9" y="373.3" fill="#EC6427" width="54.5" height="61"/><rect x="254.2" y="373.3" fill="#D15127" width="27.3" height="61"/><rect x="132.9" y="391.3" fill="#fff" width="44.9" height="43"/><rect x="132.9" y="391.3" fill="#D3D3D3" width="22.7" height="43"/><rect x="128.1" y="400.7" fill="#EC6427" width="54.5" height="33.6"/><rect x="128.1" y="400.7" fill="#D15127" width="27.3" height="33.6"/><rect x="55.7" y="72.6" fill="#ABABAB" width="62.5" height="62.5"/><rect x="61.1" y="78" fill="#29ABE2" width="51.7" height="51.7"/><path fill="#D3D3D3" d="M60.5 77.4v52.8h52.8v-52.8h-52.8zm51.7 1.8v49.1l-24.6-24.6 24.6-24.5zm-25.4 23.8l-24.4-24.5h49l-24.6 24.5zm24.6 26.1h-49.1l24.6-24.6 24.5 24.6zm-49.8-.8v-49l24.5 24.5-24.5 24.5z"/><rect x="76.7" y="45.7" transform="matrix(-.955 -.295 .295 -.955 188.446 182.39)" fill="#C7C6C6" width="62.5" height="62.5"/><rect x="82.1" y="51.1" transform="matrix(-.955 -.295 .295 -.955 188.444 182.387)" fill="#EC6427" width="51.7" height="51.7"/><path fill="#E5E5E5" d="M90.5 43.9l-15.6 50.4 50.4 15.6 15.6-50.4-50.4-15.6zm48.9 16.9l-14.5 46.9-16.2-30.7 30.7-16.2zm-31.3 15.3l-16.1-30.6 46.8 14.5-30.7 16.1zm15.8 32.2l-47-14.5 30.7-16.2 16.3 30.7zm-47.4-15.5l14.5-46.9 16.2 30.7-30.7 16.2z"/><rect x="110.4" y="32.5" transform="matrix(-.724 -.69 .69 -.724 200.127 207.695)" fill="#C7C6C6" width="62.5" height="62.5"/><rect x="115.8" y="37.9" transform="matrix(-.724 -.69 .69 -.724 200.128 207.691)" fill="#29ABE2" width="51.7" height="51.7"/><path fill="#E5E5E5" d="M140.7 26.3l-36.4 38.2 38.2 36.4 36.4-38.2-38.2-36.4zm36.2 37l-33.9 35.5-.8-34.7 34.7-.8zm-34.7-.3l-.8-34.6 35.4 33.8-34.6.8zm-.3 35.9l-35.6-33.9 34.8-.8.8 34.7zm-35.5-35l33.8-35.5.8 34.7-34.6.8z"/><rect x="45.8" y="142.9" fill="#F15F42" width="16.2" height="4.6"/><path fill="#231F20" d="M119.6 146.8h-8.7l-1.1-5.7c0-1.7-1.2-3.1-2.7-3.1h-15c-1.5 0-2.7 1.4-2.7 3.1l-1.1 5.7h-62.7c-1.9 0-3.4 1.6-3.4 3.6v53.8c0 2 1.5 3.6 3.4 3.6h94c1.9 0 3.4-1.6 3.4-3.6v-53.8c0-2-1.5-3.6-3.4-3.6z"/><rect x="92.7" y="140.9" fill="#fff" width="14.1" height="6"/><path fill="#ABABAB" d="M82.4 215.7c-17.3 0-31.4-14.3-31.4-32 0-17.6 14.1-32 31.4-32 17.3 0 31.4 14.3 31.4 32 0 17.6-14.1 32-31.4 32z"/><path fill="#fff" d="M82.4 156.8c-14.6 0-26.4 12.1-26.4 26.9 0 14.8 11.9 26.9 26.4 26.9 14.6 0 26.4-12.1 26.4-26.9 0-14.9-11.8-26.9-26.4-26.9z"/><path fill="#231F20" d="M82.4 163.4c-4.8 0-9.2 1.7-12.6 4.6 3.7.3 6.6 3.4 6.6 7.2 0 4-3.2 7.3-7.2 7.3-2.7 0-5-1.5-6.2-3.7-.4 1.6-.6 3.2-.6 4.8 0 11.2 9 20.3 19.9 20.3 11 0 19.9-9.1 19.9-20.3.2-11.1-8.8-20.2-19.8-20.2z"/><path fill="#ABABAB" d="M22.2 200.9l16.8-2.4c1.8-.3 3.2-2 3.2-3.9v-34.3c0-1.9-1.4-3.6-3.2-3.9l-16.8-2.4v46.9z"/><polygon fill="#524E4F" points="60.8,223.3 52.7,209.2 44.6,223.3"/><polygon fill="#524E4F" points="434.6,172.4 420.6,180.5 434.6,188.6"/><circle fill="#28A8E0" cx="446.8" cy="243.1" r="26.3"/><circle fill="#EC6427" cx="446.8" cy="384.8" r="26.3"/><polygon fill="#524E4F" points="339.3,394.1 355.9,421.7 372.5,394.1 360.8,394.1 360.8,384.2 351.1,384.2 351.1,394.1"/><path fill="#fff" d="M351.7 98.8c0-6.3-5.1-11.3-11.3-11.3-6.3 0-11.3 5.1-11.3 11.3 0 2.8 1 5.3 2.7 7.3l8.7 10.5 8.8-10.6c1.5-2 2.4-4.5 2.4-7.2z"/><path fill="#fff" d="M317.5 98.8c0-6.3-5.1-11.3-11.3-11.3-6.3 0-11.3 5.1-11.3 11.3 0 2.8 1 5.3 2.7 7.3l8.7 10.5 8.8-10.6c1.4-2 2.4-4.5 2.4-7.2z"/><path fill="#fff" d="M283.5 98.8c0-6.3-5.1-11.3-11.3-11.3-6.3 0-11.3 5.1-11.3 11.3 0 2.8 1 5.3 2.7 7.3l8.7 10.5 8.7-10.6c1.6-2 2.5-4.5 2.5-7.2z"/><circle fill="#01A79D" cx="340.4" cy="98.8" r="8.2"/><g fill="#fff"><path d="M337.7 94.9c-1.8 0-3.3 1.5-3.3 3.3 0 1.8 1.5 3.3 3.3 3.3 1.8 0 3.3-1.5 3.3-3.3 0-1.9-1.4-3.3-3.3-3.3zm0 5.6c-1.3 0-2.4-1-2.4-2.3 0-1.3 1.1-2.3 2.4-2.3 1.3 0 2.4 1 2.4 2.3 0 1.2-1.1 2.3-2.4 2.3zM345.5 98.1l-.3-.2s.1 0 .1-.1c.4-.3.6-.7.6-1.3 0-.5-.3-1-.7-1.3-.4-.3-1-.5-1.6-.5-.6 0-1.2.2-1.6.5-.5.3-.7.8-.7 1.3h1c0-.5.6-.9 1.4-.9.8 0 1.4.4 1.4.9 0 .2 0 .7-1.3.9h-.7v1h.6c1.7.2 1.7.8 1.7 1 0 .6-.7 1-1.6 1-.9 0-1.6-.5-1.6-1h-1c0 .5.3 1.1.8 1.4.5.3 1.1.5 1.8.5s1.3-.2 1.8-.5c.5-.4.8-.9.8-1.4-.2-.5-.4-.9-.9-1.3z"/></g><circle fill="#48A0D9" cx="306.1" cy="98.8" r="8.2"/><g fill="#fff"><path d="M303.3 95.1c-1.8 0-3.3 1.5-3.3 3.3s1.5 3.3 3.3 3.3c1.8 0 3.3-1.5 3.3-3.3s-1.5-3.3-3.3-3.3zm0 5.6c-1.3 0-2.4-1-2.4-2.3 0-1.3 1.1-2.3 2.4-2.3 1.3 0 2.4 1 2.4 2.3 0 1.2-1.1 2.3-2.4 2.3zM308.4 100.6l2.7-2.3.2-.2c.2-.3.4-.6.4-1 0-.5-.3-1-.8-1.4-.5-.3-1.1-.5-1.7-.5-.6 0-1.2.2-1.7.5-.5.4-.8.9-.8 1.4h1c0-.5.7-.9 1.4-.9.8 0 1.4.4 1.4.9 0 .1 0 .3-.3.5l-3.6 3v1h4.9v-1h-3.1z"/></g><circle fill="#FABF2A" cx="272.2" cy="98.8" r="8.2"/><g fill="#fff"><polygon points="275.1,95.6 274.3,95.6 274.3,96.6 275.1,96.6 275.1,101.9 276.1,101.9 276.1,96.6 276.1,95.6"/><path d="M270.6 95.5c-1.8 0-3.3 1.5-3.3 3.3 0 1.8 1.5 3.3 3.3 3.3 1.8 0 3.3-1.5 3.3-3.3 0-1.8-1.5-3.3-3.3-3.3zm0 5.6c-1.3 0-2.4-1-2.4-2.3 0-1.3 1.1-2.3 2.4-2.3 1.3 0 2.4 1 2.4 2.3 0 1.3-1.1 2.3-2.4 2.3z"/></g><path fill="#fff" d="M462.9 242.2c0-8.9-7.2-16.1-16.1-16.1-8.9 0-16.1 7.2-16.1 16.1 0 8.9 7.2 16.1 16.1 16.1 8.9-.1 16.1-7.3 16.1-16.1zm-29.8 1.1h4.8c.1 1.7.4 3.3.9 4.9h-4.4c-.7-1.5-1.2-3.1-1.3-4.9zm27.4-2.3h-4.8c-.1-1.7-.3-3.5-.8-5.1h4.2c.8 1.5 1.3 3.3 1.4 5.1zm-7.1 0h-5.5v-5.1h4.6c.6 1.7.9 3.4.9 5.1zm-5.5-7.4v-5.2h.1c1.5 1.6 2.7 3.3 3.6 5.2h-3.7zm-2.2-5.2v5.2h-3.7c.8-1.9 2.1-3.6 3.7-5.2zm0 7.5v5.1h-5.5c.1-1.7.4-3.5.9-5.1h4.6zm-7.8 5.1h-4.8c.1-1.8.7-3.6 1.5-5.1h4.1c-.5 1.7-.8 3.4-.8 5.1zm2.3 2.3h5.5v4.9h-4.4c-.6-1.6-1-3.2-1.1-4.9zm5.5 7.2v5c-1.4-1.5-2.6-3.2-3.5-5h3.5zm2.2 0h3.5c-.9 1.8-2 3.5-3.5 5v-5zm0-2.3v-4.9h5.5c-.1 1.7-.5 3.3-1 4.9h-4.5zm7.8-4.9h4.8c-.1 1.8-.6 3.4-1.4 4.9h-4.4c.6-1.6.9-3.2 1-4.9zm1.9-9.7h-3.5c-.6-1.5-1.4-3-2.4-4.3 2.3.9 4.4 2.4 5.9 4.3zm-15.7-4.3c-1 1.4-1.8 2.8-2.4 4.3h-3.5c1.5-1.9 3.6-3.4 5.9-4.3zm-6.1 21.2h3.8c.7 1.7 1.7 3.3 2.8 4.7-2.6-.8-4.9-2.5-6.6-4.7zm15.3 4.8c1.1-1.5 2.1-3.1 2.8-4.7h3.8c-1.6 2.1-3.9 3.8-6.6 4.7z"/><path fill="#fff" d="M447.1 373.5c-9.2 0-17 4.3-19.2 10.2 2.3 5.9 10 10.2 19.2 10.2s17-4.3 19.2-10.2c-2.2-5.9-10-10.2-19.2-10.2zm.8 8.2c0-1.3 1.1-2.4 2.4-2.4 1.3 0 2.4 1.1 2.4 2.4s-1.1 2.4-2.4 2.4c-1.3 0-2.4-1.1-2.4-2.4zm-17.4 2c1.9-3.7 6.8-6.5 12.5-7.4-2.6 1.5-4.4 4.3-4.4 7.5 0 3.1 1.7 5.9 4.2 7.4-2.4-.4-4.7-1.2-6.7-2.3-2.6-1.4-4.5-3.2-5.6-5.2zm21 7.4c2.5-1.5 4.2-4.2 4.2-7.3 0-3.2-1.8-6-4.4-7.5 5.7.9 10.5 3.7 12.5 7.4-2.1 3.6-6.8 6.4-12.3 7.4z"/><path fill="#FABF2A" d="M22.2 297.6c-6.6 0-22.3 5-22.2 22.4 0 5.6 2.1 10.7 5.6 14.6 0 0 5.4 6.4 5.5 14.1v1.5c0 2.2 1.7 3.9 3.8 3.9l15.1-.1c2.5 0 3.8-1.8 3.8-3.9v-1.5c0-7.6 5.3-14.1 5.3-14.1 3.4-3.9 5.5-9.1 5.5-14.7 0-12.3-10.1-22.2-22.4-22.2z"/><g fill="#fff"><path d="M12.6 320.1c.1 0 .1.1 0 0 1 2.2 6.1 14.3 6.6 23.9.1 0 .2 0 .2-.1-.5-9.3-5.3-21-6.5-23.6h.2c.2 0 .5-.1.7-.2.4-.2.6-.5.7-.9.2.1.3.1.5.1s.4 0 .5-.1c.4-.2.7-.5.8-.8.2.1.4.2.7.2.1 0 .3 0 .4-.1.4-.1.7-.4.9-.7.2.2.5.3.8.3h.2c.4-.1.7-.3.9-.6.2.2.6.4.9.4h.1c.4 0 .7-.2 1-.5.2.3.6.5 1 .5h.1c.4 0 .7-.1.9-.4.2.3.5.6.9.6h.2c.3 0 .6-.1.8-.3.2.3.5.6.9.7l.4.1c.2 0 .5-.1.7-.2.1.4.4.7.8.8.2.1.4.1.5.1.2 0 .4 0 .5-.1.1.4.4.7.7.9.2.1.5.2.7.2h.2c-1.1 2.7-5.9 14.3-6.5 23.6.1.1.2.1.2.1.5-9.5 5.7-21.7 6.6-23.8h.1c.1 0 .1-.1 0-.2 0-.1-.1-.1-.2 0-.3.2-.7.2-1 0-.3-.2-.6-.5-.6-.8l.3-.3c.1-.2.2-.3.1-.5 0-.1-.1-.2-.2-.3h-.2c-.2 0-.4.2-.4.5v.5c-.3.2-.6.2-.9 0-.3-.1-.6-.4-.7-.8.1-.1.2-.2.3-.4.1-.2.1-.4.1-.5 0-.1-.1-.2-.2-.2-.1-.1-.3 0-.4.1-.1.1-.1.3-.1.4 0 .2 0 .4.1.5-.2.2-.6.3-.9.2-.3-.1-.6-.4-.7-.7.1-.1.2-.2.3-.4.1-.2.1-.4 0-.5 0-.1-.1-.2-.3-.2-.1 0-.3 0-.3.1-.1.1-.1.3-.1.5s.1.4.1.5c-.2.2-.5.3-.9.3-.3-.1-.6-.3-.8-.6.1-.1.2-.2.2-.4.1-.2.1-.4 0-.5-.1-.1-.2-.2-.3-.2-.1 0-.2 0-.3.1-.1.1-.1.3-.1.5s.1.3.1.4c-.2.3-.5.4-.9.4-.3 0-.7-.2-.8-.5l.2-.4c.1-.2 0-.4-.1-.5 0-.1-.1-.1-.3-.1-.1 0-.2 0-.3.1-.1.1-.1.3-.1.5.1.2.1.3.2.4-.2.3-.5.5-.8.5-.3 0-.7-.1-.9-.4 0-.1.1-.3.1-.5s0-.4-.1-.5c-.1-.1-.2-.1-.3-.1-.1 0-.2.1-.3.2-.1.1-.1.3 0 .5s.2.3.2.4c-.2.3-.5.5-.8.6-.3.1-.7 0-.9-.3 0-.1.1-.3.1-.5s0-.4-.1-.5c-.1-.1-.2-.1-.3-.1-.1 0-.2.1-.3.2-.1.1-.1.3 0 .5s.2.3.2.4c-.1.3-.4.6-.7.7-.3.1-.7 0-.9-.2 0-.1.1-.3.1-.5s0-.3-.1-.4c-.1-.1-.2-.1-.4-.1-.1 0-.2.1-.2.2-.1.1 0 .3.1.5s.2.3.3.3c-.1.3-.4.6-.7.8-.3.1-.7.1-.9 0v-.5c0-.3-.2-.5-.4-.5h-.2c-.1.1-.2.2-.2.3 0 .1 0 .3.1.5l.3.3c-.1.4-.3.7-.6.9-.3.2-.7.2-1 0h-.2c.6.1.6.2.6.2zm17.8-1.7c0-.1.1-.2.1-.2h.1l.1.1c0 .1 0 .2-.1.3l-.2.2v-.4zm-2-.8c0-.1 0-.2.1-.2s.1.1.1.1c0 .1 0 .2-.1.3l-.1.2v-.4zm-1.9-.8h.2v.3c0 .1-.1.2-.1.2 0-.1 0-.2-.1-.3-.1-.1-.1-.2 0-.2zm-2.1-.4h.2v.3c0 .1-.1.2-.1.2l-.1-.3v-.2zm-2-.1h.2v.3c0 .1-.1.2-.1.2 0-.1-.1-.2-.1-.2-.1-.1-.1-.2 0-.3zm-2.1.4v-.3h.2s.1.1 0 .3c0 .1 0 .2-.1.3l-.1-.3zm-1.9.6l-.1-.2c-.1-.1-.1-.2 0-.3 0 0 0-.1.1-.1 0 0 .1.1 0 .3v.3zm-2 .6l-.1-.2c-.1-.1-.1-.2-.1-.3 0 0 0-.1.1-.1 0 0 .1.1.1.3v.3zm-1.9.8c-.1 0-.1-.1-.2-.2s-.1-.2-.1-.3c0 0 0-.1.1-.1h.1c.1 0 .1.1.1.3v.3zM24.3 343.1v-4.3c.8-.2 1.4-1 1.4-1.9 0-1.1-.9-2-2-2h-2.5c-1.1 0-2 .9-2 2 0 .9.6 1.6 1.4 1.9v4.3c-.3.1-2.3.7-2.3 1.9v8.4h8.2v-8.4c.1-1.3-1.8-1.8-2.2-1.9z"/></g><path fill="#666" d="M33.8 354.8c0-.9-.5-1.6-1.1-1.8h-20.7c-.6.2-1.1.9-1.1 1.8 0 .8.4 1.5 1 1.8-.6.3-1 .9-1 1.8 0 .8.4 1.5 1 1.8-.6.3-1 .9-1 1.8 0 1 .7 1.9 1.5 1.9h.2c-.4.3-.7.9-.7 1.7 0 1 .6 1.9 1.4 1.9h2c.9 1 2.5 2 3.1 2.4l.1.1 1.7 1.7c.3.3 1.1.5 2.4.5.8 0 1.7-.1 2.2-.4l.2-.1 1.7-1.7.1-.1c1.1-.7 2.4-1.7 3.1-2.4h1.9c.8 0 1.4-.8 1.4-1.9 0-.7-.3-1.3-.7-1.7h.2c.8 0 1.5-.8 1.5-1.9 0-.8-.4-1.5-1-1.8.6-.3 1-.9 1-1.8 0-.8-.4-1.5-1-1.8.2-.3.6-1 .6-1.8z"/><path fill="#01A79D" d="M78.7 373.7c0 14.5-11.8 26.3-26.3 26.3s-26.3-11.8-26.3-26.3 11.8-26.3 26.3-26.3 26.3 11.8 26.3 26.3z"/><path fill="#fff" d="M68 376.4v-5.4h-3.1c-.3-1.5-.9-2.9-1.7-4.2l2.2-2.2-3.8-3.8-2.2 2.2c-1.3-.8-2.7-1.4-4.2-1.7v-3.1h-5.4v3.1c-1.5.3-2.9.9-4.2 1.7l-2.2-2.2-3.8 3.8 2.2 2.2c-.8 1.3-1.4 2.7-1.7 4.2h-3.1v5.4h3.1c.3 1.5.9 2.9 1.7 4.2l-2.2 2.2 3.8 3.8 2.2-2.2c1.3.8 2.7 1.4 4.2 1.7v3.1h5.4v-3.1c1.5-.3 2.9-.9 4.2-1.7l2.2 2.2 3.8-3.8-2.2-2.2c.8-1.3 1.4-2.7 1.7-4.2h3.1zm-7.5 1.6l-.1.3v.1l-.2.3-.6.8c-.1.1-.1.2-.2.2v.1l-.9.9h-.1c-.1.1-.2.1-.2.2l-.8.6-.3.2h-.1l-.3.1c-.5.3-1 .5-1.6.6l-.4.1h-.1c-.1 0-.2 0-.3.1h-.1c-.1 0-.2 0-.4.1h-2.6c-.1 0-.2 0-.4-.1h-.1c-.1 0-.2 0-.3-.1h-.1c-.1 0-.2-.1-.4-.1l-1.6-.6-.3-.1h-.1l-.3-.2-.8-.6c-.1-.1-.2-.1-.2-.2h-.1l-.9-.9v-.1c-.1-.1-.1-.2-.2-.2l-.6-.8-.2-.3v-.1c-.1-.1-.1-.2-.1-.3-.3-.6-.6-1.3-.8-1.9v-.1c0-.1 0-.2-.1-.3v-.1c0-.1 0-.2-.1-.4 0-.1 0-.3-.1-.4v-2.2c0-.1 0-.2.1-.4v-.1c0-.1 0-.2.1-.3v-.1c0-.1.1-.2.1-.4l.6-1.6.1-.3v-.1l.2-.3.6-.8c.1-.1.1-.2.2-.2v-.1l.9-.9h.1c.1-.1.2-.1.2-.2l.8-.6.3-.2h.1c.1 0 .2-.1.3-.2.5-.3 1-.5 1.6-.6l.4-.1h.1c.1 0 .2 0 .3-.1h.1c.1 0 .2 0 .4-.1.1 0 .3 0 .4-.1h1.8000000000000003c.1 0 .3 0 .4.1.1 0 .2 0 .4.1h.1c.1 0 .2 0 .3.1h.1c.1 0 .2.1.4.1l1.6.6.3.1h.1c.1 0 .2.1.3.2l.8.6c.1.1.2.1.2.2h.1l.9.9v.1c.1.1.1.2.2.2l.6.8.2.3v.1c.1.1.1.2.1.3.3.5.5 1 .6 1.6 0 .1.1.2.1.4v.1c0 .1 0 .2.1.3v.1c0 .1 0 .2.1.4 0 .1 0 .3.1.4v1.8000000000000003c0 .1 0 .3-.1.4 0 .1 0 .2-.1.4v.1c0 .1 0 .2-.1.3v.1c0 .7-.2 1.4-.5 2z"/><path fill="#010101" d="M480 131.9c0 9.7-31.7 9.8-41.2 9.8-9.5 0-41.3-.2-41.3-9.8v-128.2c0-2 1.7-3.7 3.7-3.7h75.1c2 0 3.7 1.7 3.7 3.7v128.2z"/><rect x="404.2" y="10.6" fill="#fff" width="69.2" height="103.6"/><path fill="#fff" d="M444 124.4c0 2.9-2.4 5.3-5.3 5.3s-5.3-2.4-5.3-5.3 2.4-5.3 5.3-5.3c3 0 5.3 2.4 5.3 5.3z"/><path fill="#EC6427" d="M439.2 21v16.2c.2 0 .4-.2.5-.3.6-.8 1.1-1.3 2.2-1.3 1.4 0 2.6 1.2 2.6 2.8v.2c-.1 1.6-1.2 2.9-2.6 2.9-1.1 0-1.6-.5-2.2-1.3-.1-.2-.3-.3-.5-.3v10.6h11.1c.1 0 .3.1.3.2.1.1.1.2.1.4-.1.3-.2.6-.5.8-.7.5-1.1.9-1.1 1.8 0 1.2 1.1 2.1 2.4 2.2h.2c1.4-.1 2.4-1 2.4-2.2 0-.9-.4-1.3-1.1-1.8-.3-.2-.4-.4-.5-.8 0-.1 0-.2.1-.4.1-.1.2-.2.4-.2h15.8v-4.8h-6c-.6-2.9-1.8-5.6-3.4-8l4.3-4.3-7.4-7.3-4.3 4.2c-2.4-1.6-5.1-2.7-8-3.3v-6h-4.8z"/><path fill="#FABF2A" d="M409 45.7v4.8h16.3c0-.2-.2-.4-.3-.5-.8-.6-1.3-1.1-1.3-2.2 0-1.4 1.2-2.6 2.8-2.6h.2c1.6.1 2.9 1.2 2.9 2.6 0 1.1-.5 1.6-1.3 2.2-.2.1-.3.3-.3.5h10.7v-10.6c0-.1.1-.3.2-.3.1-.1.2-.1.4-.1.3.1.6.2.8.5.5.7.9 1.1 1.8 1.1 1.2 0 2.1-1.1 2.2-2.4v-.2c-.1-1.4-1-2.4-2.2-2.4-.9 0-1.3.4-1.8 1.1-.2.3-.5.4-.8.5-.1 0-.2 0-.4-.1-.1-.1-.2-.2-.2-.4v-16.2h-5v6c-2.9.6-5.6 1.7-8 3.3l-4.2-4.2-7.4 7.3 4.2 4.3c-1.5 2.4-2.7 5.1-3.3 8h-6z"/><path fill="#1D76BB" d="M438.7 80.8v-16.1c-.2 0-.4.2-.5.3-.6.8-1.1 1.3-2.2 1.3-1.4 0-2.6-1.3-2.6-2.9v-.2c.1-1.6 1.2-2.8 2.6-2.8 1.1 0 1.6.4 2.2 1.3.1.2.3.3.5.3v-11.1h-10.7c-.1 0-.3-.1-.3-.2-.1-.1-.1-.2-.1-.4.1-.3.2-.6.5-.8.7-.5 1.1-.9 1.1-1.8 0-1.2-1.1-2.1-2.4-2.2h-.2c-1.4.1-2.4 1-2.4 2.2 0 .9.4 1.3 1.1 1.8.3.2.4.4.5.8 0 .1 0 .2-.1.4-.1.1-.2.2-.4.2h-16.3v5.2h6c.6 2.9 1.8 5.6 3.3 8l-4.2 4.2 7.4 7.4 4.2-4.3c2.4 1.6 5.1 2.7 8 3.3v6h5z"/><path fill="#77CBF2" d="M468.8 56.1v-5.2h-15.8c0 .2.2.4.3.5.8.6 1.3 1.1 1.3 2.2 0 1.4-1.2 2.6-2.8 2.6h-.2c-1.6-.1-2.9-1.2-2.9-2.6 0-1.1.4-1.6 1.3-2.2.2-.1.3-.3.3-.5h-11.1v11c0 .2-.1.3-.2.4-.1.1-.3.1-.4.1-.3-.1-.6-.3-.8-.5-.5-.7-.9-1.1-1.8-1.1-1.2 0-2.1 1.1-2.2 2.4v.2c.1 1.4 1 2.4 2.2 2.4.9 0 1.3-.4 1.8-1.1.2-.3.5-.5.8-.5.1 0 .3 0 .4.1.1.1.2.2.2.3v16.1h5v-6c2.9-.6 5.6-1.8 8-3.3l4.3 4.3 7.4-7.4-4.3-4.2c1.6-2.4 2.7-5.1 3.4-8h5.8z"/><g fill="#989898"><rect x="421" y="93" width="35.8" height="1.9"/><rect x="421" y="97.2" width="35.8" height="1.9"/><rect x="427.8" y="101.4" width="22.2" height="1.9"/></g></svg>