<svg xmlns="http://www.w3.org/2000/svg" viewBox="0 0 350 77.8"><title>logo-web-guild-white</title><path d="M162.2 47.9h4.3v17.9a13.3 13.3 0 0 1-4 9.6 14.4 14.4 0 0 1-4.3 2.9 13 13 0 0 1-5.2 1.1 13.3 13.3 0 0 1-11.4-6.3 13.8 13.8 0 0 1-4.9 4.6 13.1 13.1 0 0 1-6.5 1.7 12.9 12.9 0 0 1-5.3-1.1 13.6 13.6 0 0 1-7.1-7.2 13.2 13.2 0 0 1-1.1-5.3v-17.9h4.2v17.9a9.1 9.1 0 0 0 .7 3.6 9.6 9.6 0 0 0 2 2.9 8.9 8.9 0 0 0 2.9 2 9.1 9.1 0 0 0 3.6.7 9 9 0 0 0 3.6-.7 9.3 9.3 0 0 0 3-2 9.8 9.8 0 0 0 2-2.9 8.7 8.7 0 0 0 .8-3.6v-17.9h4.3v17.9a9.7 9.7 0 0 0 .8 3.7 9.6 9.6 0 0 0 2 2.9 9 9 0 0 0 2.9 1.9 8.9 8.9 0 0 0 3.5.7 9.1 9.1 0 0 0 3.6-.7 9 9 0 0 0 2.9-2 9.5 9.5 0 0 0 2-2.9 9 9 0 0 0 .7-3.6v-17.9z" transform="translate(-12.5 -13.6)" fill="#fff"/><path d="M174.5 62.9a11.9 11.9 0 0 0 1 4.8 12.3 12.3 0 0 0 6.6 6.6 12.4 12.4 0 0 0 9.6 0 12.5 12.5 0 0 0 4-2.6 11.8 11.8 0 0 0 2.1-2.8h4.6l-.2.5a16.3 16.3 0 0 1-3.5 5.3 16.7 16.7 0 0 1-5.3 3.5 16.7 16.7 0 0 1-12.9 0 16.6 16.6 0 0 1-8.8-8.8 16.6 16.6 0 0 1 0-12.9 16.6 16.6 0 0 1 8.8-8.8 16.8 16.8 0 0 1 12.9 0 16.8 16.8 0 0 1 5.3 3.5 16.3 16.3 0 0 1 3.5 5.3 15.4 15.4 0 0 1 1.3 5.2h-28.9q-.1.6-.1 1.2zm21.1-8.7a12.5 12.5 0 0 0-4-2.6 12.4 12.4 0 0 0-9.6 0 12.4 12.4 0 0 0-6.3 5.9h22.1a13.2 13.2 0 0 0-2.2-3.3z" transform="translate(-12.5 -13.6)" fill="#fff"/><path d="M206.4 35.9h4.2v16.8a12.9 12.9 0 0 1 5.3-4.5 15.5 15.5 0 0 1 7.1-1.8 16.2 16.2 0 0 1 6.5 1.3 16.6 16.6 0 0 1 8.8 8.8 16.6 16.6 0 0 1 0 12.9 16.6 16.6 0 0 1-8.8 8.8 16.7 16.7 0 0 1-12.9 0 16.6 16.6 0 0 1-8.8-8.8 16.1 16.1 0 0 1-1.3-6.4v-27zm4.2 27a12 12 0 0 0 1 4.8 12.3 12.3 0 0 0 6.6 6.6 12.4 12.4 0 0 0 9.6 0 12.3 12.3 0 0 0 6.6-6.6 12.4 12.4 0 0 0 0-9.6 12.3 12.3 0 0 0-6.6-6.6 12.4 12.4 0 0 0-9.6 0 12.3 12.3 0 0 0-6.6 6.6 12 12 0 0 0-1 4.8z" transform="translate(-12.5 -13.6)" fill="#fff"/><path d="M274.1 47.9h4.2v27a16.1 16.1 0 0 1-1.3 6.4 16.6 16.6 0 0 1-8.8 8.8 16.8 16.8 0 0 1-12.9 0 16.8 16.8 0 0 1-5.3-3.6 16.1 16.1 0 0 1-2.2-2.7l3.1-3.1a12 12 0 0 0 2.1 2.8 12.4 12.4 0 0 0 4 2.6 12.4 12.4 0 0 0 9.6 0 12.3 12.3 0 0 0 6.6-6.6 12 12 0 0 0 1-4.8v-.8l-.7.7a16.7 16.7 0 0 1-5.2 3.5 16.7 16.7 0 0 1-12.9 0 16.6 16.6 0 0 1-8.8-8.8 16.6 16.6 0 0 1 0-12.9 16.6 16.6 0 0 1 8.8-8.8 16.4 16.4 0 0 1 18.2 3.6l.7.7v-4zm-24.7 15a12 12 0 0 0 1 4.8 12.3 12.3 0 0 0 6.6 6.6 12.4 12.4 0 0 0 9.6 0 12.3 12.3 0 0 0 6.6-6.6 13.3 13.3 0 0 0 1-5.3 11 11 0 0 0-.8-4.3 14.4 14.4 0 0 0-2.8-3.9 12.4 12.4 0 0 0-3.9-2.6 12.4 12.4 0 0 0-9.6 0 12.3 12.3 0 0 0-6.6 6.6 12 12 0 0 0-1.2 4.7z" transform="translate(-12.5 -13.6)" fill="#fff"/><path d="M305.4 64.4v-16.5h4.2v16.5a13.1 13.1 0 0 1-1.1 5.2 13.5 13.5 0 0 1-2.9 4.3 14 14 0 0 1-4.3 2.9 13.3 13.3 0 0 1-10.5 0 13.8 13.8 0 0 1-7.2-7.2 12.9 12.9 0 0 1-1.1-5.2v-16.5h4.3v16.5a9 9 0 0 0 2.7 6.5 9.7 9.7 0 0 0 2.9 2 8.9 8.9 0 0 0 3.6.7 9.1 9.1 0 0 0 3.6-.7 9.6 9.6 0 0 0 3-2 9 9 0 0 0 2.8-6.5z" transform="translate(-12.5 -13.6)" fill="#fff"/><path d="M313.2 38.4a2.5 2.5 0 1 1 .7 1.8 2.4 2.4 0 0 1-.7-1.8zm.4 9.5h4.2v30.1h-4.2v-30.1z" transform="translate(-12.5 -13.6)" fill="#fff"/><path d="M309.6 22.3h4.2v42.1h-4.2v-42.1z" fill="#fff"/><path d="M362.5 62.9a16.1 16.1 0 0 1-1.3 6.4 16.6 16.6 0 0 1-8.8 8.8 16.7 16.7 0 0 1-12.9 0 16.6 16.6 0 0 1-8.8-8.8 16.6 16.6 0 0 1 0-12.9 16.6 16.6 0 0 1 8.8-8.8 16.2 16.2 0 0 1 6.5-1.3 15.5 15.5 0 0 1 7.1 1.8 12.9 12.9 0 0 1 5.3 4.5v-16.7h4.2v27zm-4.2 0a12 12 0 0 0-1-4.8 12.3 12.3 0 0 0-6.6-6.6 12.4 12.4 0 0 0-9.6 0 12.3 12.3 0 0 0-6.6 6.6 12.3 12.3 0 0 0 0 9.6 12.3 12.3 0 0 0 6.6 6.6 12.4 12.4 0 0 0 9.6 0 12.3 12.3 0 0 0 6.6-6.6 12 12 0 0 0 1-4.8z" transform="translate(-12.5 -13.6)" fill="#fff"/><path d="M70.7 55.4c-4.6 2.1-9.8 3.2-14 5.8s-7.3 6.1-11.3 8.3a13.1 13.1 0 0 1-2.6 1c-8.6 2.3-19.2 2.2-27.9 5.1.7.2 2.9-.1 3.5.2-1.4.2-4.8 1.1-6 1.4 1.4.1 4.9-.1 6.1.1l-3.4.8c10 1.6 20.9-2.2 30.5-1.7 7.8.3 13.5 3.3 18.8 3.7 4.4-4.7 4.2-17.2 6.3-24.7z" transform="translate(-12.5 -13.6)" fill="#fff"/><path d="M43.3 68.8a38.3 38.3 0 0 0-5.9-.6 5.3 5.3 0 0 1 1.1.9c-2.1 0-4.3-.4-6.2-.4l1.9.9-4.7.5c4.6 1.8 9.8.5 13.8-1.3z" transform="translate(-12.5 -13.6)" fill="#fff"/><path d="M117.2 15.5c-.6-2.8-3.5-1.6-3.5-1.6a20.8 20.8 0 0 1-3.9.9 11.3 11.3 0 0 1-3.4 0 19.1 19.1 0 0 0-7.9-.3c-16.9 4.3-12.5 13.6-18.7 24.7-3.2 5.6-6.6 11.6-8.3 18.1-1.1 4.3-1.1 9.7-2.1 14.2s-2.2 9.3-5.6 10c0 0 16.1 6.7 27.5-9.6a17.9 17.9 0 0 1-11.4 10.5c46.3 4.4 28.1-38.3 28.1-38.3-2-3.7-2.2-9.9.2-13.1 1.3-1.7 1.4-1.6 2.9-3.6l1.6-2.1c.4-.5 4.4-4.4 2.7-5.4s-2 .6-2.9.5c1.2-.5 3.4-2.3 3.9-.1a7.6 7.6 0 0 0 .8-4.8zm-12.2 1.6l-1.1.5a.4.4 0 0 0-.4-.2.4.4 0 0 0-.5.4.3.3 0 0 0 .2.3 2.1 2.1 0 0 1-2.1.1 3.1 3.1 0 0 1 3.9-1.1zm-5 8.9c4.7-4.6 2.6-5 9.3-7.9-6 3.3-4.1 3.6-9.3 7.9zm3.6 3.5c4.2-7.2 1.5-6.2 6.5-10.6-4.7 5.4-2.4 3.9-6.6 10.5zm4.2-3.5a17.6 17.6 0 0 1 3.4-6.5c-1.1 2-2.4 4.3-3.5 6.5zm6.2-10.8c1.3-.8 1.6-.6 1.6.9-.8-1.2-.7-.6-1.6-.9z" transform="translate(-12.5 -13.6)" fill="#fff"/></svg>